<?xml version="1.0" encoding="UTF-8" standalone="no"?>
<!-- Created with Inkscape (http://www.inkscape.org/) -->

<svg
   version="1.1"
   id="svg2"
   width="170.78799"
   height="170.78799"
   viewBox="0 0 170.78799 170.78799"
   xml:space="preserve"
   xmlns="http://www.w3.org/2000/svg"
   xmlns:svg="http://www.w3.org/2000/svg"><defs
     id="defs6"><clipPath
       clipPathUnits="userSpaceOnUse"
       id="clipPath1329"><g
         id="g1333"><path
           d="M 0,1080 H 1920 V 0 H 0 Z"
           id="path1331" /></g></clipPath></defs><g
     id="g10"
     transform="matrix(1.3333333,0,0,-1.3333333,-31.333066,981.16678)"><g
       id="g370"
       style="fill:#ffffff;stroke:#ffffff"
       clip-path="url(#clipPath1329)"><g
         id="g62"
         transform="translate(148.0908,671.8291)"
         style="fill:#ffffff;stroke:#ffffff"><path
           d="m 0,0 h -3 c -0.002,-15.9 -6.436,-30.268 -16.855,-40.691 -10.423,-10.418 -24.79,-16.852 -40.69,-16.854 -15.901,0.002 -30.268,6.436 -40.691,16.854 -10.419,10.423 -16.853,24.791 -16.855,40.691 0.002,15.9 6.436,30.268 16.855,40.691 10.423,10.419 24.79,16.853 40.691,16.855 15.9,-0.002 30.267,-6.436 40.69,-16.855 C -9.436,30.268 -3.002,15.9 -3,0 h 3 3 c 10e-4,17.538 -7.117,33.444 -18.612,44.934 -11.49,11.495 -27.395,18.613 -44.933,18.612 -17.539,10e-4 -33.444,-7.117 -44.934,-18.612 -11.495,-11.49 -18.613,-27.396 -18.612,-44.934 -0.001,-17.538 7.117,-33.443 18.612,-44.933 11.49,-11.495 27.395,-18.613 44.934,-18.612 17.538,-10e-4 33.443,7.117 44.933,18.612 C -4.117,-33.443 3.001,-17.538 3,0 Z"
           style="fill:#ffffff;fill-opacity:1;fill-rule:nonzero;stroke:#ffffff"
           id="path64" /></g><g
         id="g66"
         transform="translate(148.0908,671.8291)"
         style="fill:#ffffff;stroke:#ffffff"><path
           d="m 0,0 h -3 c -0.002,-15.9 -6.436,-30.268 -16.855,-40.691 -10.423,-10.418 -24.79,-16.852 -40.69,-16.854 -15.901,0.002 -30.268,6.436 -40.691,16.854 -10.419,10.423 -16.853,24.791 -16.855,40.691 0.002,15.9 6.436,30.268 16.855,40.691 10.423,10.419 24.79,16.853 40.691,16.855 15.9,-0.002 30.267,-6.436 40.69,-16.855 C -9.436,30.268 -3.002,15.9 -3,0 h 3 3 c 10e-4,17.538 -7.117,33.444 -18.612,44.934 -11.49,11.495 -27.395,18.613 -44.933,18.612 -17.539,10e-4 -33.444,-7.117 -44.934,-18.612 -11.495,-11.49 -18.613,-27.396 -18.612,-44.934 -0.001,-17.538 7.117,-33.443 18.612,-44.933 11.49,-11.495 27.395,-18.613 44.934,-18.612 17.538,-10e-4 33.443,7.117 44.933,18.612 C -4.117,-33.443 3.001,-17.538 3,0 Z"
           style="fill:#ffffff;stroke:#ffffff;stroke-width:1;stroke-linecap:butt;stroke-linejoin:miter;stroke-miterlimit:10;stroke-dasharray:none;stroke-opacity:1"
           id="path68" /></g><g
         id="g70"
         transform="translate(62.3682,682.1367)"
         style="fill:#ffffff;stroke:#ffffff"><path
           d="m 0,0 v -1.905 c 0,-1.657 1.343,-3 3,-3 1.657,0 3,1.343 3,3 V 0 C 6,1.657 4.657,3 3,3 1.343,3 0,1.657 0,0"
           style="fill:#ffffff;fill-opacity:1;fill-rule:nonzero;stroke:#ffffff;stroke-width:1;stroke-linecap:butt;stroke-linejoin:miter;stroke-miterlimit:10;stroke-dasharray:none;stroke-opacity:1"
           id="path72" /></g><g
         id="g74"
         transform="translate(106.7227,682.1367)"
         style="fill:#ffffff;stroke:#ffffff"><path
           d="m 0,0 v -1.905 c 0,-1.657 1.343,-3 3,-3 1.657,0 3,1.343 3,3 V 0 C 6,1.657 4.657,3 3,3 1.343,3 0,1.657 0,0"
           style="fill:#ffffff;fill-opacity:1;fill-rule:nonzero;stroke:#ffffff;stroke-width:1;stroke-linecap:butt;stroke-linejoin:miter;stroke-miterlimit:10;stroke-dasharray:none;stroke-opacity:1"
           id="path76" /></g><g
         id="g78"
         transform="translate(116.9268,662.6123)"
         style="fill:#ffffff;stroke:#ffffff"><path
           d="m 0,0 c -0.002,-3.005 -0.766,-5.857 -2.188,-8.511 -2.129,-3.973 -5.781,-7.485 -10.498,-9.995 -4.713,-2.51 -10.469,-4.006 -16.695,-4.005 -8.303,-0.004 -15.766,2.666 -21.041,6.829 -2.64,2.079 -4.731,4.522 -6.153,7.171 -1.422,2.654 -2.186,5.506 -2.188,8.511 0,1.657 -1.343,3 -3,3 -1.657,0 -3,-1.343 -3,-3 -0.002,-4.039 1.046,-7.898 2.901,-11.349 2.787,-5.183 7.347,-9.461 12.966,-12.453 5.623,-2.992 12.329,-4.708 19.515,-4.709 9.58,0.005 18.308,3.045 24.753,8.116 3.22,2.537 5.871,5.592 7.726,9.046 C 4.954,-7.898 6.002,-4.039 6,0 6,1.657 4.657,3 3,3 1.343,3 0,1.657 0,0"
           style="fill:#ffffff;fill-opacity:1;fill-rule:nonzero;stroke:#ffffff"
           id="path80" /></g><g
         id="g82"
         transform="translate(116.9268,662.6123)"
         style="fill:#ffffff;stroke:#ffffff"><path
           d="m 0,0 c -0.002,-3.005 -0.766,-5.857 -2.188,-8.511 -2.129,-3.973 -5.781,-7.485 -10.498,-9.995 -4.713,-2.51 -10.469,-4.006 -16.695,-4.005 -8.303,-0.004 -15.766,2.666 -21.041,6.829 -2.64,2.079 -4.731,4.522 -6.153,7.171 -1.422,2.654 -2.186,5.506 -2.188,8.511 0,1.657 -1.343,3 -3,3 -1.657,0 -3,-1.343 -3,-3 -0.002,-4.039 1.046,-7.898 2.901,-11.349 2.787,-5.183 7.347,-9.461 12.966,-12.453 5.623,-2.992 12.329,-4.708 19.515,-4.709 9.58,0.005 18.308,3.045 24.753,8.116 3.22,2.537 5.871,5.592 7.726,9.046 C 4.954,-7.898 6.002,-4.039 6,0 6,1.657 4.657,3 3,3 1.343,3 0,1.657 0,0 Z"
           style="fill:#ffffff;stroke:#ffffff;stroke-width:1;stroke-linecap:butt;stroke-linejoin:miter;stroke-miterlimit:10;stroke-dasharray:none;stroke-opacity:1"
           id="path84" /></g></g></g></svg>
