<?xml version="1.0" encoding="UTF-8" standalone="no"?>
<!-- Created with Inkscape (http://www.inkscape.org/) -->

<svg
   version="1.1"
   id="svg2"
   width="251.09369"
   height="146.84135"
   viewBox="0 0 251.09369 146.84135"
   xml:space="preserve"
   xmlns="http://www.w3.org/2000/svg"
   xmlns:svg="http://www.w3.org/2000/svg"><defs
     id="defs6"><clipPath
       clipPathUnits="userSpaceOnUse"
       id="clipPath1335"><g
         id="g1339"><path
           d="M 0,1080 H 1920 V 0 H 0 Z"
           id="path1337" /></g></clipPath></defs><g
     id="g10"
     transform="matrix(1.3333333,0,0,-1.3333333,-1643.2778,957.61158)"><g
       id="g1041"
       clip-path="url(#clipPath1335)"
       style="fill:#ffffff;stroke:#ffffff"><g
         id="g54"
         transform="translate(1387.7725,699.4976)"
         style="fill:#ffffff;stroke:#ffffff"><path
           d="m 0,0 c 11.638,9.172 28.698,-0.896 25.919,-15.45 -0.431,-2.256 -1.131,-4.719 -2.152,-7.41 -0.692,-1.821 -0.492,-3.869 0.564,-5.505 11.114,-17.218 5.816,-36.261 -15.152,-40.263 -2.122,-0.405 -3.858,-1.969 -4.549,-4.016 -7.484,-22.139 -39.165,-18.194 -49.809,-5.174 -3.343,4.09 -6.092,8.302 -8.309,12.22 -3.355,5.927 -11.977,5.927 -15.331,0 -2.217,-3.918 -4.966,-8.13 -8.31,-12.22 -10.643,-13.02 -42.324,-16.965 -49.809,5.174 -0.691,2.047 -2.426,3.611 -4.548,4.016 -20.969,4.002 -26.267,23.045 -15.153,40.263 1.056,1.636 1.256,3.684 0.565,5.505 -1.022,2.691 -1.722,5.154 -2.153,7.41 -2.779,14.554 14.282,24.622 25.918,15.45 l 49.996,-39.409 c 6.545,-5.159 15.773,-5.159 22.318,0 z"
           style="fill:#ffffff;stroke:#ffffff;stroke-width:6;stroke-linecap:round;stroke-linejoin:round;stroke-miterlimit:10;stroke-dasharray:none;stroke-opacity:1"
           id="path56" /></g><g
         id="g58"
         transform="translate(1353.3154,703.0107)"
         style="fill:#ffffff;stroke:#ffffff"><path
           d="m 0,0 c 0,-6.737 -11.952,-12.198 -26.697,-12.198 -14.744,0 -26.698,5.461 -26.698,12.198 0,6.737 11.954,12.198 26.698,12.198 C -11.952,12.198 0,6.737 0,0 Z"
           style="fill:#ffffff;stroke:#ffffff;stroke-width:6;stroke-linecap:round;stroke-linejoin:round;stroke-miterlimit:10;stroke-dasharray:none;stroke-opacity:1"
           id="path60" /></g></g></g></svg>
