<?xml version="1.0" encoding="UTF-8" standalone="no"?>
<!-- Created with Inkscape (http://www.inkscape.org/) -->

<svg
   version="1.1"
   id="svg2"
   width="234.72861"
   height="227.06087"
   viewBox="0 0 234.72861 227.06087"
   xml:space="preserve"
   xmlns="http://www.w3.org/2000/svg"
   xmlns:svg="http://www.w3.org/2000/svg"><defs
     id="defs6"><clipPath
       clipPathUnits="userSpaceOnUse"
       id="clipPath1341"><g
         id="g1345"><path
           d="M 0,1080 H 1920 V 0 H 0 Z"
           id="path1343" /></g></clipPath></defs><g
     id="g10"
     transform="matrix(1.3333333,0,0,-1.3333333,-1248.8151,486.36592)"><g
       id="g1074"
       clip-path="url(#clipPath1341)"
       style="fill:#ffffff;stroke:#ffffff"><g
         id="g38"
         transform="translate(1064.1133,226.8008)"
         style="fill:#ffffff;stroke:#ffffff"><path
           d="m 0,0 c -0.342,-1.508 -1.096,-2.969 -1.891,-4.512 -0.351,-0.684 -0.716,-1.39 -1.055,-2.121 -3.224,-6.959 -5.95,-12.749 -8.575,-18.222 -0.768,-1.603 -1.069,-1.769 -2.93,-1.627 -5.664,0.442 -11.532,1.61 -18.471,3.675 -6.527,1.944 -12.906,4.492 -18.958,7.572 -8.857,4.508 -17.324,10.166 -25.168,16.814 -3.859,3.27 -6.941,6.124 -9.696,8.98 -9.065,9.392 -16.216,18.975 -21.867,29.3 -5.484,10.022 -9.432,20.67 -11.733,31.647 -0.736,3.511 -1.158,6.459 -1.328,9.277 -0.111,1.845 0.026,2.085 1.63,2.856 3.762,1.811 7.614,3.613 11.339,5.357 3.844,1.799 7.821,3.66 11.717,5.538 0.522,0.251 1.124,0.434 1.85,0.618 h 0.602 c 0.593,-0.033 1.135,-0.207 2.07,-1.668 4.487,-7.02 9.08,-14.136 13.521,-21.017 l 1.092,-1.694 c 0.972,-1.503 0.885,-2.307 -0.389,-3.583 -0.791,-0.792 -1.579,-1.588 -2.366,-2.384 -2.012,-2.035 -4.093,-4.137 -6.187,-6.128 -2.152,-2.044 -2.98,-4.616 -2.461,-7.647 1.079,-6.307 3.425,-12.344 6.972,-17.942 5.749,-9.073 13.331,-16.33 22.534,-21.568 4.984,-2.836 10.28,-4.726 15.74,-5.616 2.961,-0.483 5.487,0.347 7.508,2.466 2.114,2.218 4.345,4.425 6.504,6.558 0.729,0.722 1.459,1.443 2.185,2.167 1.067,1.06 1.966,1.162 3.207,0.367 4.517,-2.896 9.027,-5.8 13.536,-8.705 3.403,-2.191 6.805,-4.382 10.21,-6.57 C -0.502,1.961 -0.116,1.629 0,0.582 Z m 2.013,6.658 c -3.403,2.186 -6.804,4.376 -10.204,6.566 -4.513,2.907 -9.026,5.813 -13.545,8.709 -3.329,2.135 -7.001,1.735 -9.82,-1.072 -0.724,-0.72 -1.449,-1.437 -2.175,-2.154 -2.185,-2.161 -4.446,-4.395 -6.615,-6.671 -0.8,-0.839 -1.586,-1.088 -2.808,-0.89 -4.834,0.789 -9.534,2.469 -13.966,4.992 -8.442,4.804 -15.398,11.463 -20.675,19.794 -3.169,5.002 -5.264,10.383 -6.224,15.994 -0.221,1.293 0.019,2.08 0.885,2.902 2.153,2.046 4.264,4.179 6.305,6.243 0.782,0.79 1.563,1.581 2.349,2.367 3.054,3.06 3.432,6.593 1.093,10.217 l -1.093,1.693 c -4.437,6.876 -9.027,13.988 -13.51,20.997 -1.083,1.695 -2.92,3.964 -6.363,4.117 l -0.116,0.002 h -0.991 c -0.211,0 -0.422,-0.026 -0.627,-0.075 -0.96,-0.233 -2.079,-0.528 -3.204,-1.07 -3.87,-1.865 -7.832,-3.72 -11.664,-5.513 -3.738,-1.749 -7.602,-3.557 -11.39,-5.381 -3.573,-1.717 -4.871,-3.951 -4.629,-7.961 0.186,-3.084 0.641,-6.277 1.431,-10.048 2.408,-11.488 6.538,-22.626 12.273,-33.108 5.88,-10.746 13.307,-20.702 22.703,-30.438 2.881,-2.987 6.086,-5.955 10.084,-9.344 8.158,-6.913 16.97,-12.799 26.193,-17.494 6.338,-3.227 13.016,-5.895 19.851,-7.93 7.308,-2.176 13.528,-3.408 19.575,-3.88 0.379,-0.029 0.744,-0.044 1.093,-0.044 3.393,0 5.476,1.407 7.041,4.67 2.635,5.494 5.369,11.304 8.604,18.285 0.292,0.63 0.615,1.258 0.957,1.921 0.969,1.88 1.971,3.825 2.43,6.153 0.035,0.17 0.051,0.342 0.051,0.515 V 0.713 L 5.302,0.95 C 5.074,3.48 3.968,5.401 2.013,6.658"
           style="fill:#ffffff;fill-opacity:1;fill-rule:nonzero;stroke:#ffffff"
           id="path40" /></g><g
         id="g42"
         transform="translate(1013.8428,350.3164)"
         style="fill:#ffffff;stroke:#ffffff"><path
           d="m 0,0 -2.095,-24.089 c -0.038,-0.44 0.102,-0.876 0.385,-1.213 0.283,-0.338 0.691,-0.548 1.13,-0.585 l 6.995,-0.592 -9.598,-23.409 0.907,18.484 c 0.044,0.906 -0.649,1.681 -1.553,1.739 l -6.871,0.438 z m -13.129,-32.398 7.455,-0.476 -1.298,-26.504 c -0.04,-0.808 0.509,-1.527 1.297,-1.703 0.12,-0.025 0.242,-0.039 0.363,-0.039 0.661,0 1.275,0.397 1.535,1.031 l 14.123,34.443 c 0.201,0.488 0.155,1.043 -0.119,1.494 -0.277,0.451 -0.75,0.744 -1.278,0.789 L 1.358,-22.72 4.389,12.154 C 4.46,12.983 3.906,13.738 3.095,13.919 2.28,14.099 1.462,13.65 1.176,12.869 l -15.758,-43.04 c -0.18,-0.492 -0.117,-1.039 0.169,-1.477 0.285,-0.439 0.763,-0.718 1.284,-0.75"
           style="fill:#ffffff;fill-opacity:1;fill-rule:nonzero;stroke:#ffffff"
           id="path44" /></g><g
         id="g46"
         transform="translate(1050.5342,313.9033)"
         style="fill:#ffffff;stroke:#ffffff"><path
           d="M 0,0 C 0.598,0.682 0.537,1.717 -0.135,2.326 L -6.485,8.066 27.262,28.695 6.005,6.235 C 5.702,5.915 5.539,5.487 5.553,5.046 5.565,4.604 5.751,4.187 6.073,3.885 L 12.425,-2.1 -15.621,-17.806 Z m -23.243,-25.637 c 0.276,0 0.556,0.068 0.81,0.212 l 38.454,21.533 c 0.461,0.259 0.771,0.721 0.836,1.246 0.064,0.524 -0.124,1.048 -0.508,1.411 L 9.561,5.161 38.256,35.485 c 0.572,0.603 0.609,1.539 0.086,2.185 -0.525,0.647 -1.447,0.805 -2.156,0.372 L -10.112,9.74 C -10.559,9.467 -10.851,9 -10.899,8.478 c -0.048,-0.521 0.15,-1.035 0.54,-1.386 L -3.575,0.96 -24.491,-22.882 c -0.533,-0.608 -0.551,-1.511 -0.042,-2.14 0.323,-0.4 0.803,-0.615 1.29,-0.615"
           style="fill:#ffffff;fill-opacity:1;fill-rule:nonzero;stroke:#ffffff"
           id="path48" /></g><g
         id="g50"
         transform="translate(1073.9766,277.3926)"
         style="fill:#ffffff;stroke:#ffffff"><path
           d="m 0,0 c -0.436,-0.065 -0.829,-0.299 -1.091,-0.654 -0.263,-0.353 -0.374,-0.797 -0.308,-1.233 l 1.033,-6.944 -24.988,3.947 18.195,3.377 c 0.892,0.166 1.486,1.017 1.334,1.911 L -6.981,7.19 23.923,3.513 Z m 36.717,5.334 -45.512,5.417 c -0.518,0.061 -1.038,-0.126 -1.399,-0.505 -0.361,-0.379 -0.521,-0.906 -0.433,-1.423 l 1.254,-7.364 -26.089,-4.843 c -0.795,-0.147 -1.369,-0.847 -1.358,-1.654 0.011,-0.81 0.603,-1.492 1.401,-1.618 l 36.771,-5.807 0.258,-0.021 c 0.434,0 0.856,0.171 1.169,0.482 0.375,0.372 0.551,0.899 0.473,1.423 l -1.123,7.536 34.633,5.087 c 0.824,0.121 1.431,0.833 1.419,1.665 -0.012,0.832 -0.638,1.526 -1.464,1.625"
           style="fill:#ffffff;fill-opacity:1;fill-rule:nonzero;stroke:#ffffff"
           id="path52" /></g></g></g></svg>
