<?xml version="1.0" encoding="UTF-8" standalone="no"?>
<!-- Created with Inkscape (http://www.inkscape.org/) -->

<svg
   version="1.1"
   id="svg2"
   width="226.99039"
   height="197.47462"
   viewBox="0 0 226.99039 197.47462"
   xml:space="preserve"
   xmlns="http://www.w3.org/2000/svg"
   xmlns:svg="http://www.w3.org/2000/svg"><defs
     id="defs6"><clipPath
       clipPathUnits="userSpaceOnUse"
       id="clipPath1293"><g
         id="g1297"><path
           d="M 0,1080 H 1920 V 0 H 0 Z"
           id="path1295" /></g></clipPath></defs><g
     id="g10"
     transform="matrix(1.3333333,0,0,-1.3333333,-839.61083,463.42472)"><g
       id="g1086"
       clip-path="url(#clipPath1293)"
       style="fill:#ffffff;stroke:#ffffff"><g
         id="g134"
         transform="translate(671.7393,340.3965)"
         style="fill:#ffffff;stroke:#ffffff"><path
           d="m 0,0 c -0.042,0 -0.085,-0.001 -0.128,-0.003 -1.475,-0.062 -2.685,-1.188 -2.854,-2.654 -0.303,-2.639 -2.876,-4.603 -4.515,-4.795 -1.457,-0.171 -2.576,-1.371 -2.646,-2.836 -0.07,-1.466 0.93,-2.767 2.364,-3.076 2.85,-0.615 4.508,-2.286 4.797,-4.835 0.169,-1.496 1.42,-2.635 2.925,-2.663 h 0.056 c 1.481,0 2.745,1.083 2.966,2.552 0.389,2.584 2.059,4.322 5.106,5.311 1.37,0.445 2.231,1.803 2.049,3.232 -0.182,1.429 -1.355,2.528 -2.793,2.616 -2.046,0.125 -3.85,2.076 -4.388,4.744 C 2.656,-1.003 1.421,0 0,0 m -0.001,-3 c 0.802,-3.98 3.669,-6.933 7.145,-7.146 -4.097,-1.331 -6.581,-3.97 -7.145,-7.716 -0.416,3.67 -2.851,6.505 -7.145,7.43 3.081,0.363 6.686,3.44 7.145,7.432"
           style="fill:#ffffff;fill-opacity:1;fill-rule:nonzero;stroke:#ffffff"
           id="path136" /></g><g
         id="g138"
         transform="translate(750.7422,329.4268)"
         style="fill:#ffffff;stroke:#ffffff"><path
           d="m 0,0 c -0.042,0 -0.085,-0.001 -0.128,-0.003 -1.475,-0.062 -2.685,-1.188 -2.853,-2.654 -0.304,-2.639 -2.877,-4.602 -4.516,-4.795 -1.457,-0.171 -2.576,-1.371 -2.646,-2.836 -0.07,-1.466 0.93,-2.767 2.364,-3.075 2.85,-0.616 4.508,-2.287 4.797,-4.836 0.169,-1.496 1.42,-2.635 2.925,-2.662 0.019,-10e-4 0.038,-10e-4 0.057,-10e-4 1.48,0 2.744,1.083 2.965,2.552 0.389,2.584 2.06,4.322 5.106,5.312 1.37,0.445 2.231,1.802 2.049,3.231 -0.182,1.43 -1.354,2.528 -2.793,2.616 -2.046,0.126 -3.85,2.076 -4.388,4.744 C 2.656,-1.003 1.422,0 0,0 m -0.001,-3 c 0.802,-3.98 3.669,-6.933 7.145,-7.146 -4.097,-1.331 -6.581,-3.97 -7.145,-7.716 -0.416,3.67 -2.851,6.505 -7.145,7.43 3.081,0.363 6.686,3.44 7.145,7.432"
           style="fill:#ffffff;fill-opacity:1;fill-rule:nonzero;stroke:#ffffff"
           id="path140" /></g><g
         id="g142"
         transform="translate(643.5078,292.624)"
         style="fill:#ffffff;stroke:#ffffff"><path
           d="m 0,0 45.64,6.498 c 1.082,0.154 2.017,0.835 2.496,1.818 L 68.35,49.813 c 1.157,2.376 4.543,2.381 5.708,0.008 L 94.348,8.477 C 94.825,7.505 95.749,6.829 96.819,6.67 l 45.57,-6.793 c 2.645,-0.395 3.65,-3.681 1.676,-5.485 l -33.094,-30.286 c -0.83,-0.758 -1.215,-1.888 -1.021,-2.996 l 8.235,-47.095 c 0.454,-2.596 -2.268,-4.584 -4.603,-3.362 L 72.899,-68.05 c -0.955,0.5 -2.093,0.501 -3.048,0.004 l -40.67,-21.178 c -2.322,-1.209 -5.028,0.751 -4.602,3.334 l 7.618,46.244 c 0.177,1.077 -0.191,2.172 -0.983,2.923 L -1.739,-5.449 C -3.667,-3.62 -2.63,-0.374 0,0 Z"
           style="fill:#ffffff;stroke:#ffffff;stroke-width:7;stroke-linecap:butt;stroke-linejoin:miter;stroke-miterlimit:10;stroke-dasharray:none;stroke-opacity:1"
           id="path144" /></g><g
         id="g146"
         transform="translate(787.104,295.7227)"
         style="fill:#ffffff;stroke:#ffffff"><path
           d="m 0,0 c -25.889,-2.445 -51,-9.278 -59.389,-11.667 -2.013,-0.573 -3.056,-0.667 -2.334,-2.723 0.016,-0.045 0.035,-0.085 0.051,-0.13 -2.854,0.262 -6.913,0.427 -11.432,0.427 -3.677,0 -7.051,-0.109 -9.721,-0.291 0.718,2.05 -0.323,2.144 -2.335,2.717 -8.388,2.389 -33.5,9.222 -59.388,11.667 -4.24,0.4 -2.993,-2.571 -2.445,-4.39 7.111,-23.61 26.934,-29.543 35.055,-30.388 12.73,-1.326 22.724,4.386 28.333,18.366 2.776,-0.215 6.453,-0.348 10.501,-0.348 4.883,0 9.24,0.192 12.106,0.49 5.598,-14.081 15.614,-19.838 28.387,-18.508 C -24.489,-33.933 -4.667,-28 2.444,-4.39 2.992,-2.571 4.24,0.4 0,0"
           style="fill:#ffffff;fill-opacity:1;fill-rule:nonzero;stroke:#ffffff"
           id="path148" /></g><g
         id="g150"
         transform="translate(789.5483,291.333)"
         style="fill:#ffffff;stroke:#ffffff"><path
           d="m 0,0 c -7.111,-23.61 -26.934,-29.543 -35.056,-30.389 -13.333,-1.388 -23.676,4.921 -29.111,20.389 -0.722,2.056 0.32,2.149 2.334,2.723 8.389,2.388 33.5,9.221 59.389,11.667 C 1.795,4.79 0.547,1.818 0,0 m -114.382,-30.389 c -8.121,0.846 -27.944,6.779 -35.055,30.389 -0.548,1.818 -1.795,4.79 2.444,4.39 25.889,-2.446 51,-9.279 59.389,-11.667 2.013,-0.574 3.056,-0.667 2.333,-2.723 -5.434,-15.468 -15.777,-21.777 -29.111,-20.389 M 5.049,11.503 C -25.75,7.025 -60.63,-1.481 -63.444,-2.296 c -1.599,-0.463 -4.045,-1.063 -5.355,-2.965 -1.972,1.237 -4.176,1.88 -6.436,1.782 -1.94,-0.074 -3.79,-0.679 -5.437,-1.724 -1.319,1.859 -3.737,2.449 -5.321,2.907 -2.815,0.815 -37.694,9.321 -68.494,13.799 -11.061,1.608 -0.162,-16.415 3.013,-21.873 10.814,-18.593 28.222,-24.593 39.629,-25.333 5.84,-0.38 23.852,1.63 31.345,23.323 0.053,0.154 0.083,0.289 0.13,0.439 3.862,3.933 5.737,4.974 11.248,0.181 0.063,-0.208 0.11,-0.401 0.185,-0.62 7.493,-21.693 25.504,-23.703 31.344,-23.323 11.408,0.74 28.815,6.74 39.63,25.333 3.174,5.458 14.074,23.481 3.012,21.873"
           style="fill:#ffffff;fill-opacity:1;fill-rule:nonzero;stroke:#ffffff"
           id="path152" /></g></g></g></svg>
