<?xml version="1.0" encoding="UTF-8" standalone="no"?>
<!-- Created with Inkscape (http://www.inkscape.org/) -->

<svg
   version="1.1"
   id="svg2"
   width="205.26933"
   height="172.116"
   viewBox="0 0 205.26933 172.116"
   xml:space="preserve"
   xmlns="http://www.w3.org/2000/svg"
   xmlns:svg="http://www.w3.org/2000/svg"><defs
     id="defs6"><clipPath
       clipPathUnits="userSpaceOnUse"
       id="clipPath1323"><g
         id="g1327"><path
           d="M 0,1080 H 1920 V 0 H 0 Z"
           id="path1325" /></g></clipPath></defs><g
     id="g10"
     transform="matrix(1.3333333,0,0,-1.3333333,-1329.5885,981.85158)"><g
       id="g1035"
       clip-path="url(#clipPath1323)"
       style="fill:#ffffff;stroke:#ffffff"><g
         id="g86"
         transform="translate(1112.9424,735.8887)"
         style="fill:#ffffff;stroke:#ffffff"><path
           d="M 0,0 H -0.002 -0.035 C -13.202,0 -26.918,-5.932 -38.774,-16.728 -50.486,-6.082 -64.543,0 -77.514,0 c -7.276,-0.004 -13.833,-1.787 -19.524,-5.301 -5.953,-3.686 -10.553,-9.02 -13.68,-15.858 -2.143,-4.699 -3.538,-10.052 -4.145,-15.914 -0.257,-2.481 -0.388,-4.942 -0.388,-7.319 0.006,-9.214 1.881,-17.575 5.732,-25.564 3.515,-7.279 8.632,-14.125 15.648,-20.933 12.685,-12.324 49.858,-35.195 51.434,-36.163 1.124,-0.69 2.393,-1.035 3.663,-1.035 1.279,0 2.557,0.35 3.687,1.05 0.901,0.559 22.193,13.763 31.516,20.199 10.485,7.236 18.53,14.051 24.592,20.833 4.679,5.232 8.26,10.482 10.947,16.047 3.853,7.994 5.728,16.354 5.733,25.563 0,2.338 -0.333,6.66 -0.371,7.145 -0.005,0.06 -0.01,0.119 -0.016,0.178 -0.912,8.775 -3.54,16.282 -7.812,22.314 C 25.393,-8.969 19.99,-4.796 13.441,-2.346 9.267,-0.79 4.747,-0.001 0,0 m -0.035,-7 h 0.033 c 3.913,-0.001 7.612,-0.643 10.991,-1.903 5.068,-1.895 9.43,-5.154 12.801,-9.901 3.363,-4.749 5.734,-11.031 6.562,-18.992 0,0 0.349,-4.467 0.349,-6.596 -0.004,-8.407 -1.77,-15.748 -5.037,-22.524 -2.452,-5.08 -5.765,-9.843 -9.863,-14.424 -6.144,-6.874 -14.061,-13.327 -23.349,-19.737 -9.288,-6.412 -31.226,-20.01 -31.226,-20.01 0,0 -37.943,23.292 -50.222,35.222 -6.146,5.964 -10.948,12.178 -14.217,18.949 -3.266,6.776 -5.032,14.117 -5.037,22.524 0,2.129 0.114,4.325 0.349,6.596 0.55,5.305 1.791,9.87 3.549,13.727 2.645,5.784 6.431,9.988 10.991,12.812 4.562,2.816 9.941,4.254 15.814,4.257 h 0.033 c 10.952,0 23.604,-5.112 34.832,-15.648 1.083,-1.018 2.497,-1.549 3.895,-1.549 h 0.013 0.011 c 1.398,0 2.812,0.531 3.895,1.548 C -23.639,-12.111 -10.988,-7 -0.035,-7"
           style="fill:#ffffff;fill-opacity:1;fill-rule:nonzero;stroke:#ffffff"
           id="path88" /></g></g></g></svg>
