<?xml version="1.0" encoding="UTF-8" standalone="no"?>
<!-- Created with Inkscape (http://www.inkscape.org/) -->

<svg
   version="1.1"
   id="svg2"
   width="177.65961"
   height="178.69533"
   viewBox="0 0 177.65961 178.69533"
   xml:space="preserve"
   xmlns="http://www.w3.org/2000/svg"
   xmlns:svg="http://www.w3.org/2000/svg"><defs
     id="defs6"><clipPath
       clipPathUnits="userSpaceOnUse"
       id="clipPath1281"><g
         id="g1285"><path
           d="M 0,1080 H 1920 V 0 H 0 Z"
           id="path1283" /></g></clipPath></defs><g
     id="g10"
     transform="matrix(1.3333333,0,0,-1.3333333,-2271.6786,990.92384)"><g
       id="g1061"
       clip-path="url(#clipPath1281)"
       style="fill:#ffffff;stroke:#ffffff"><g
         id="g158"
         transform="translate(1800.1475,631.5283)"
         style="fill:#ffffff;stroke:#ffffff"><path
           d="m 0,0 c -0.628,0 -1.245,0.294 -1.635,0.845 -0.637,0.902 -0.424,2.15 0.478,2.788 15.649,11.067 23.702,30.423 20.514,49.312 -0.749,4.434 -2.078,8.731 -3.95,12.772 -0.465,1.002 -0.028,2.191 0.974,2.655 1.006,0.465 2.192,0.028 2.655,-0.974 2.023,-4.363 3.457,-9.002 4.265,-13.787 C 26.743,33.215 18.05,12.316 1.153,0.367 0.802,0.119 0.399,0 0,0"
           style="fill:#ffffff;fill-opacity:1;fill-rule:nonzero;stroke:#ffffff"
           id="path160" /></g><g
         id="g162"
         transform="translate(1795.1885,706.9219)"
         style="fill:#ffffff;stroke:#ffffff"><path
           d="m 0,0 h -17.056 v 5.872 c 0,1.553 -1.258,2.812 -2.811,2.812 h -7.953 c -1.554,0 -2.813,-1.259 -2.813,-2.812 V 0 h -4.869 c -12.66,0 -20.366,-6.421 -20.366,-16.696 0,-6.696 3.853,-12.2 11.834,-14.218 -8.073,-0.46 -13.945,-7.982 -13.945,-15.137 0,-10.091 7.798,-16.146 19.816,-16.146 h 7.53 v -5.872 c 0,-1.553 1.259,-2.812 2.813,-2.812 h 7.953 c 1.553,0 2.811,1.259 2.811,2.812 v 5.872 H 0.183 c 0.917,0 1.008,0.093 1.008,1.284 v 6.086 6.116 4.648 c 0,1.553 -1.258,2.813 -2.811,2.813 h -7.954 c -1.553,0 -2.812,-1.26 -2.812,-2.813 v -4.648 h -16.328 c -4.311,0 -5.871,2.018 -5.871,5.137 0,3.119 1.835,5.045 5.871,5.045 h 8.745 c 1.554,0 2.813,1.259 2.813,2.812 v 9.421 c 0,1.553 -1.259,2.812 -2.813,2.812 h -7.277 c -4.128,0 -5.779,2.018 -5.779,4.862 0,2.935 1.651,5.045 5.779,5.045 h 14.86 v -4.65 c 0,-1.552 1.259,-2.811 2.812,-2.811 h 7.954 c 1.553,0 2.811,1.259 2.811,2.811 v 4.65 6.116 6.544 C 1.191,-0.183 0.917,0 0,0"
           style="fill:#ffffff;fill-opacity:1;fill-rule:nonzero;stroke:#ffffff"
           id="path164" /></g><g
         id="g166"
         transform="translate(1770.7705,609.6714)"
         style="fill:#ffffff;stroke:#ffffff"><path
           d="m 0,0 c -19.199,0 -37.461,8.298 -50.103,22.767 -1.09,1.248 -0.962,3.143 0.286,4.233 1.248,1.09 3.143,0.962 4.232,-0.285 C -34.082,13.55 -17.467,6 0,6 c 21.961,0 42.24,11.937 52.924,31.151 0.805,1.448 2.631,1.971 4.08,1.164 1.448,-0.805 1.969,-2.631 1.164,-4.08 C 46.427,13.118 24.138,0 0,0"
           style="fill:#ffffff;fill-opacity:1;fill-rule:nonzero;stroke:#ffffff"
           id="path168" /></g><g
         id="g170"
         transform="translate(1833.499,683.1509)"
         style="fill:#ffffff;stroke:#ffffff"><path
           d="m 0,0 c -1.451,0 -2.727,1.055 -2.96,2.533 -4.658,29.557 -29.795,51.009 -59.769,51.009 -1.657,0 -3,1.344 -3,3 0,1.657 1.343,3 3,3 15.94,0 31.358,-5.725 43.414,-16.121 C -7.386,33.134 0.527,18.945 2.968,3.468 3.226,1.831 2.107,0.295 0.471,0.037 0.312,0.012 0.155,0 0,0"
           style="fill:#ffffff;fill-opacity:1;fill-rule:nonzero;stroke:#ffffff"
           id="path172" /></g><g
         id="g174"
         transform="translate(1709.499,656.3975)"
         style="fill:#ffffff;stroke:#ffffff"><path
           d="M 0,0 C -1.318,0 -2.527,0.876 -2.892,2.21 -4.45,7.909 -5.24,13.822 -5.24,19.785 c 0,25.411 14.805,48.951 37.718,59.971 1.495,0.718 3.286,0.09 4.003,-1.403 C 37.2,76.86 36.571,75.067 35.079,74.349 14.23,64.322 0.76,42.904 0.76,19.785 0.76,14.356 1.479,8.976 2.896,3.792 3.333,2.194 2.392,0.544 0.793,0.107 0.528,0.035 0.262,0 0,0"
           style="fill:#ffffff;fill-opacity:1;fill-rule:nonzero;stroke:#ffffff"
           id="path176" /></g><g
         id="g178"
         transform="translate(1720.8926,691.4854)"
         style="fill:#ffffff;stroke:#ffffff"><path
           d="m 0,0 c -0.222,0 -0.446,0.037 -0.667,0.115 -1.042,0.369 -1.587,1.511 -1.219,2.553 6.564,18.54 22.676,32.088 42.05,35.358 15.404,2.6 31.19,-1.585 43.297,-11.486 0.855,-0.699 0.981,-1.959 0.282,-2.814 C 83.046,22.871 81.783,22.745 80.93,23.443 69.715,32.613 55.097,36.492 40.83,34.082 22.887,31.053 7.965,18.505 1.886,1.333 1.595,0.513 0.823,0 0,0"
           style="fill:#ffffff;fill-opacity:1;fill-rule:nonzero;stroke:#ffffff"
           id="path180" /></g><g
         id="g182"
         transform="translate(1769.877,621.9722)"
         style="fill:#ffffff;stroke:#ffffff"><path
           d="m 0,0 c -22.941,0 -43.607,14.462 -51.126,36.881 -0.351,1.047 0.213,2.181 1.261,2.532 1.048,0.35 2.18,-0.213 2.532,-1.261 C -39.449,14.646 -15.949,0.587 8.534,4.719 9.62,4.906 10.656,4.169 10.839,3.08 11.023,1.99 10.289,0.958 9.2,0.774 6.111,0.253 3.034,0 0,0"
           style="fill:#ffffff;fill-opacity:1;fill-rule:nonzero;stroke:#ffffff"
           id="path184" /></g></g></g></svg>
