<?xml version="1.0" encoding="UTF-8" standalone="no"?>
<!-- Created with Inkscape (http://www.inkscape.org/) -->

<svg
   version="1.1"
   id="svg2"
   width="170.51662"
   height="180.28102"
   viewBox="0 0 170.51662 180.28102"
   xml:space="preserve"
   xmlns="http://www.w3.org/2000/svg"
   xmlns:svg="http://www.w3.org/2000/svg"><defs
     id="defs6"><clipPath
       clipPathUnits="userSpaceOnUse"
       id="clipPath1287"><g
         id="g1291"><path
           d="M 0,1080 H 1920 V 0 H 0 Z"
           id="path1289" /></g></clipPath></defs><g
     id="g10"
     transform="matrix(1.3333333,0,0,-1.3333333,-1995.7774,989.4602)"><g
       id="g1045"
       clip-path="url(#clipPath1287)"
       style="fill:#ffffff;stroke:#ffffff"><g
         id="g154"
         transform="translate(1522.1836,654.1484)"
         style="fill:#ffffff;stroke:#ffffff"><path
           d="m 0,0 c -8.766,17.601 -16.272,48.538 -18.35,57.528 5.889,2.307 21.272,8.704 36.443,18.125 6.246,3.879 13.409,5.81 20.568,5.798 l 0.054,-121.483 c -0.041,-0.028 -0.08,-0.055 -0.121,-0.084 C 16.037,-24.445 7.954,-15.974 0,0 M 100.117,61.765 C 99.925,61.839 80.65,69.33 62.261,80.75 c -14.377,8.927 -32.957,8.928 -47.334,0 -18.34,-11.389 -37.611,-18.456 -37.803,-18.526 -1.41,-0.513 -2.225,-1.99 -1.906,-3.457 0.354,-1.628 8.793,-40.121 19.411,-61.442 8.7,-17.471 17.39,-26.427 42.263,-43.56 0.512,-0.353 1.107,-0.529 1.702,-0.529 0.594,0 1.189,0.176 1.702,0.529 24.871,17.131 33.56,26.088 42.263,43.56 10.615,21.318 19.054,59.387 19.408,60.997 0.318,1.447 -0.467,2.909 -1.85,3.443"
           style="fill:#ffffff;fill-opacity:1;fill-rule:nonzero;stroke:#ffffff"
           id="path156" /></g></g></g></svg>
