<?xml version="1.0" encoding="UTF-8" standalone="no"?>
<!-- Created with Inkscape (http://www.inkscape.org/) -->

<svg
   version="1.1"
   id="svg2"
   width="301.71494"
   height="170.91327"
   viewBox="0 0 301.71494 170.91327"
   xml:space="preserve"
   xmlns="http://www.w3.org/2000/svg"
   xmlns:svg="http://www.w3.org/2000/svg"><defs
     id="defs6"><clipPath
       clipPathUnits="userSpaceOnUse"
       id="clipPath1299"><g
         id="g1303"><path
           d="M 0,1080 H 1920 V 0 H 0 Z"
           id="path1301" /></g></clipPath></defs><g
     id="g10"
     transform="matrix(1.3333333,0,0,-1.3333333,-958.63515,980.96278)"><g
       id="g1031"
       clip-path="url(#clipPath1299)"
       style="fill:#ffffff;stroke:#ffffff"><g
         id="g130"
         transform="translate(792.9629,657.1851)"
         style="fill:#ffffff;stroke:#ffffff"><path
           d="M 0,0 C 0,0 27.111,42.963 28.741,45.556 26.222,48.148 23.468,54.82 24,60.074 c 0.862,8.513 8,14.963 17.037,14.963 9.593,0 17.111,-6.37 17.259,-14.963 0.095,-5.483 -3.514,-12.834 -5.925,-16.888 1.692,-2.575 28.444,-43.26 28.444,-43.26 l 36.778,37.111 c 0,0 -3.425,10.241 2.055,17.389 3.833,5 12.972,7.132 18.611,5.167 5.741,-2 13.503,-9.464 9.445,-20.889 -4.107,-11.561 -17.333,-12.111 -17.333,-12.111 0,0 -32.223,-57.63 -40.667,-72.741 -38.815,8.889 -71.408,9.334 -101.037,0.148 -12.148,21.481 -40.186,73.315 -40.186,73.315 0,0 -13.277,1.889 -17.61,11.389 -4.102,8.991 1.796,19.037 7.722,22 5.926,2.963 16.454,4.123 23.222,-4.223 5.722,-7.055 1,-21.37 1,-21.37 z"
           style="fill:#ffffff;stroke:#ffffff;stroke-width:7;stroke-linecap:round;stroke-linejoin:round;stroke-miterlimit:10;stroke-dasharray:none;stroke-opacity:1"
           id="path132" /></g></g></g></svg>
