<?xml version="1.0" encoding="UTF-8" standalone="no"?>
<!-- Created with Inkscape (http://www.inkscape.org/) -->

<svg
   version="1.1"
   id="svg2"
   width="246.22932"
   height="171.69333"
   viewBox="0 0 246.22932 171.69333"
   xml:space="preserve"
   xmlns="http://www.w3.org/2000/svg"
   xmlns:svg="http://www.w3.org/2000/svg"><defs
     id="defs6"><clipPath
       clipPathUnits="userSpaceOnUse"
       id="clipPath1275"><g
         id="g1279"><path
           d="M 0,1080 H 1920 V 0 H 0 Z"
           id="path1277" /></g></clipPath></defs><g
     id="g10"
     transform="matrix(1.3333333,0,0,-1.3333333,-1680.5773,449.76799)"><g
       id="g1064"
       clip-path="url(#clipPath1275)"
       style="fill:#ffffff;stroke:#ffffff"><path
         d="m 1439.605,276.912 h -64.544 v 23.887 h 64.544 z m 0,-62.856 h -64.544 v 23.887 h 64.544 z m -73.02,0 h -64.543 v 23.887 h 64.543 z m -100.652,54.914 h 64.543 v -23.888 h -64.543 z m 0,62.856 h 64.543 v -23.888 h -64.543 z m 72.753,0 h 64.543 v -23.888 h -64.543 z m 0,-62.856 h 64.543 v -23.888 h -64.543 z m 27.899,7.942 h -64.543 v 23.887 h 64.543 z m 78.02,-2.5 v 28.887 c 0,1.381 -1.119,2.5 -2.5,2.5 h -33.876 v 28.527 c 0,1.381 -1.12,2.5 -2.5,2.5 h -69.543 c -0.615,0 -1.17,-0.23 -1.605,-0.597 -0.435,0.367 -0.991,0.597 -1.605,0.597 h -69.543 c -1.381,0 -2.5,-1.119 -2.5,-2.5 v -28.888 c 0,-1.38 1.119,-2.5 2.5,-2.5 h 33.609 v -28.526 c 0,-0.151 0.019,-0.298 0.045,-0.442 h -33.654 c -1.381,0 -2.5,-1.119 -2.5,-2.5 v -28.888 c 0,-1.381 1.119,-2.5 2.5,-2.5 h 33.609 v -28.526 c 0,-1.381 1.119,-2.5 2.5,-2.5 h 69.543 c 0.677,0 1.288,0.271 1.738,0.708 0.45,-0.437 1.062,-0.708 1.739,-0.708 h 69.543 c 1.381,0 2.5,1.119 2.5,2.5 v 28.886 c 0,1.381 -1.119,2.5 -2.5,2.5 h -33.876 v 28.528 c 0,0.151 -0.019,0.298 -0.045,0.442 h 33.921 c 1.381,0 2.5,1.119 2.5,2.5"
         style="fill:#ffffff;fill-opacity:1;fill-rule:nonzero;stroke:#ffffff"
         id="path186" /></g></g></svg>
