<?xml version="1.0" encoding="UTF-8" standalone="no"?>
<!-- Created with Inkscape (http://www.inkscape.org/) -->

<svg
   version="1.1"
   id="svg2"
   width="187.84979"
   height="177.04796"
   viewBox="0 0 187.84979 177.04796"
   xml:space="preserve"
   xmlns="http://www.w3.org/2000/svg"
   xmlns:svg="http://www.w3.org/2000/svg"><defs
     id="defs6"><clipPath
       clipPathUnits="userSpaceOnUse"
       id="clipPath1311"><g
         id="g1315"><path
           d="M 0,1080 H 1920 V 0 H 0 Z"
           id="path1313" /></g></clipPath></defs><g
     id="g10"
     transform="matrix(1.3333333,0,0,-1.3333333,-452.54529,451.51889)"><g
       id="g1092"
       clip-path="url(#clipPath1311)"
       style="fill:#ffffff;stroke:#ffffff"><g
         id="g106"
         transform="translate(470.7627,270.6982)"
         style="fill:#ffffff;stroke:#ffffff"><path
           d="m 0,0 c -1.479,-10.899 -4.348,-15.348 -19.981,-16.088 -13.586,-0.642 -20.011,6.686 -22.343,11.862 -2.766,6.141 -7.122,18.914 17.452,19.58 C -7.183,15.836 1.949,14.358 0,0 m -67.178,-4.226 c -2.331,-5.176 -8.753,-12.504 -22.333,-11.862 -15.627,0.74 -18.494,5.189 -19.973,16.088 -1.948,14.358 7.18,15.836 24.861,15.354 24.564,-0.666 20.21,-13.439 17.445,-19.58 m 59.07,-14.861 c 0.236,-0.3 1.145,-2.082 1.498,-5.703 0.355,-3.647 -0.053,-7.561 -1.147,-11.023 -1.859,-5.875 -6.687,-13.609 -19.139,-17.077 -9.962,-2.775 -18.682,-2.327 -25.915,1.333 -5.117,2.59 -7.677,5.916 -8.138,6.557 -0.765,1.062 -1.981,1.6 -3.254,1.437 0,0 -1.834,-0.234 -2.65,-1.815 -0.376,-0.729 -0.74,-2.269 0.317,-3.643 0.431,-0.561 1.328,-1.714 2.761,-3.107 -1.381,-1.013 -3.418,-2.303 -5.98,-3.355 -6.523,-2.68 -13.305,-2.647 -20.156,0.099 -5.478,2.196 -9.271,5.907 -11.272,11.03 -0.732,1.875 -1.09,3.622 -1.265,4.948 0.878,-0.076 1.766,-0.115 2.666,-0.115 h 0.172 c 1.901,0.011 3.433,1.561 3.423,3.461 -0.01,1.895 -1.549,3.424 -3.441,3.424 h -0.019 -0.133 c -15.408,0 -23.958,14.535 -24.182,28.257 -0.182,11.108 3.112,19.613 9.792,25.283 4.493,3.814 9.669,5.544 13.662,6.068 -0.55,-1.204 -0.97,-2.219 -1.273,-2.996 -0.691,-1.771 0.184,-3.767 1.955,-4.458 1.771,-0.691 3.767,0.184 4.458,1.955 1.946,4.987 20.447,48.397 70.138,37.27 11.2,-2.509 18.354,-8.359 21.263,-17.392 1.797,-5.578 1.545,-10.989 1.017,-14.546 -0.681,-4.591 -2.007,-7.321 -2.453,-7.868 -0.246,-0.211 -0.455,-0.451 -0.627,-0.708 -4.468,0.542 -9.235,0.98 -12.906,0.98 -9.006,0 -16.911,-1.577 -21.016,-2.462 -4.104,-0.884 -7.583,-2.637 -14.685,-2.637 l -0.082,-10e-4 -0.083,10e-4 c -7.098,0 -10.576,1.753 -14.678,2.637 -4.103,0.885 -12.005,2.462 -21.008,2.462 -9.002,0 -24.611,-2.638 -26.193,-2.989 -1.009,-0.224 -1.845,-0.131 -1.757,-1.846 0.087,-1.714 0.346,-4.292 0.527,-5.978 0.174,-1.619 1.305,0.495 2.297,-3.268 1.235,-4.683 2.929,-10.192 3.592,-12.552 0.663,-2.359 2.273,-12.13 21.534,-12.13 19.261,0 22.541,6.874 25.402,11.339 5.584,8.715 3.812,14.312 10.367,14.412 6.557,-0.1 4.785,-5.697 10.371,-14.412 2.862,-4.465 6.143,-11.339 25.412,-11.339 4.215,0 7.585,0.468 10.285,1.223 0.143,-0.27 0.323,-0.523 0.543,-0.756 M 7.269,16.22 c -0.545,0.121 -2.757,0.513 -5.79,0.976 0.101,0.221 0.201,0.45 0.299,0.689 0.725,1.751 1.339,3.868 1.776,6.123 1.075,5.54 1.004,11.456 -0.198,16.659 -1.353,5.854 -4.064,10.879 -8.059,14.933 -4.698,4.768 -11.099,8.087 -19.023,9.861 -11.478,2.57 -22.356,2.639 -32.331,0.203 -8.46,-2.065 -16.311,-5.934 -23.335,-11.496 -5.586,-4.424 -10.586,-9.855 -14.86,-16.142 -0.944,-1.389 -1.794,-2.735 -2.556,-4.016 -2.689,0.132 -5.807,-0.239 -8.877,-1.074 -4.769,-1.301 -9.243,-3.646 -12.94,-6.784 -3.825,-3.247 -6.81,-7.298 -8.87,-12.045 -2.337,-5.381 -3.464,-11.639 -3.351,-18.598 0.139,-8.519 3.048,-17.074 7.98,-23.473 2.755,-3.574 6.044,-6.383 9.775,-8.346 1.169,-0.615 2.375,-1.142 3.612,-1.581 0.065,-1.728 0.387,-4.993 1.761,-8.645 1.172,-3.117 2.87,-5.911 5.047,-8.304 2.706,-2.973 6.137,-5.306 10.2,-6.934 4.262,-1.708 8.586,-2.571 12.877,-2.571 0.499,0 0.998,0.012 1.496,0.035 3.834,0.18 7.623,1.05 11.262,2.585 4.1,1.73 7.093,3.93 8.69,5.262 0.695,-0.422 1.438,-0.837 2.227,-1.236 3.913,-1.98 8.236,-3.212 12.849,-3.661 1.32,-0.128 2.664,-0.193 4.032,-0.193 4.449,0 9.138,0.68 13.989,2.032 6.845,1.906 12.463,5.103 16.697,9.503 3.586,3.727 6.119,8.23 7.528,13.384 1.492,5.459 1.354,10.264 0.975,13.334 -0.207,1.67 -0.836,5.462 -2.483,7.958 3.9,2.952 4.569,6.597 4.94,7.918 0.663,2.36 2.358,7.869 3.594,12.552 0.992,3.763 2.124,1.649 2.298,3.268 0.181,1.686 0.44,4.264 0.527,5.978 0.088,1.715 -0.748,1.622 -1.758,1.846"
           style="fill:#ffffff;fill-opacity:1;fill-rule:nonzero;stroke:#ffffff"
           id="path108" /></g><g
         id="g110"
         transform="translate(426.7104,258.6787)"
         style="fill:#ffffff;stroke:#ffffff"><path
           d="m 0,0 c -1.54,-0.374 -2.484,-1.925 -2.111,-3.464 0.993,-4.092 -1.128,-8.98 -5.278,-12.166 -2.341,-1.797 -8.678,-5.491 -16.929,-0.988 -1.39,0.759 -3.133,0.247 -3.892,-1.144 -0.759,-1.39 -0.247,-3.134 1.144,-3.892 2.08,-1.135 4.236,-1.94 6.409,-2.392 1.405,-0.293 2.822,-0.439 4.232,-0.439 0.662,0 1.324,0.032 1.983,0.097 3.802,0.375 7.449,1.83 10.546,4.207 2.827,2.17 5.03,4.969 6.371,8.095 1.424,3.321 1.767,6.771 0.989,9.975 C 3.09,-0.571 1.539,0.373 0,0"
           style="fill:#ffffff;fill-opacity:1;fill-rule:nonzero;stroke:#ffffff"
           id="path112" /></g></g></g></svg>
