<?xml version="1.0" encoding="UTF-8" standalone="no"?>
<!-- Created with Inkscape (http://www.inkscape.org/) -->

<svg
   version="1.1"
   id="svg2"
   width="188.25999"
   height="171.53999"
   viewBox="0 0 188.25999 171.53999"
   xml:space="preserve"
   xmlns="http://www.w3.org/2000/svg"
   xmlns:svg="http://www.w3.org/2000/svg"><defs
     id="defs6"><clipPath
       clipPathUnits="userSpaceOnUse"
       id="clipPath1317"><g
         id="g1321"><path
           d="M 0,1080 H 1920 V 0 H 0 Z"
           id="path1319" /></g></clipPath></defs><g
     id="g10"
     transform="matrix(1.3333333,0,0,-1.3333333,-352.95946,981.85744)"><g
       id="g1017"
       clip-path="url(#clipPath1317)"
       style="fill:#ffffff;stroke:#ffffff"><g
         id="g90"
         transform="translate(398.9136,660.2661)"
         style="fill:#ffffff;stroke:#ffffff"><path
           d="m 0,0 c -0.353,-1.208 -0.782,-2.108 -1.075,-2.513 -0.045,-0.064 -0.072,-0.092 -0.105,-0.131 -0.092,-0.018 -0.179,-0.048 -0.268,-0.075 1.086,4.666 1.679,9.521 1.679,14.518 0,2.597 -0.173,5.151 -0.475,7.667 0.112,0.253 0.176,0.518 0.203,0.789 C 0.236,19.349 0.492,18.258 0.691,17.037 1.027,15.005 1.224,12.614 1.223,10.063 1.228,6.057 0.727,2.424 0,0 M -22.196,-29.602 C -32.8,-40.201 -47.42,-46.749 -63.597,-46.75 c -16.175,10e-4 -30.797,6.549 -41.401,17.148 -10.6,10.604 -17.148,25.224 -17.148,41.401 0,2.76 0.205,5.47 0.573,8.127 0.508,0.107 0.99,0.361 1.374,0.766 l 0.001,0.001 c 0.165,0.174 5.143,5.305 14.616,10.366 5.13,2.74 11.581,5.456 19.304,7.379 -2.12,-1.44 -4.097,-3.074 -5.901,-4.878 -7.309,-7.307 -11.84,-17.428 -11.838,-28.582 -0.002,-11.153 4.529,-21.275 11.838,-28.581 7.307,-7.311 17.429,-11.84 28.582,-11.839 11.154,-10e-4 21.275,4.528 28.581,11.839 7.311,7.306 11.84,17.428 11.84,28.581 0,11.154 -4.529,21.275 -11.84,28.582 -1.597,1.599 -3.337,3.055 -5.185,4.369 7.825,-2.148 14.525,-5.116 19.933,-8.093 5.129,-2.824 9.098,-5.648 11.768,-7.75 1.276,-1.005 2.246,-1.839 2.915,-2.435 0.344,-2.569 0.538,-5.187 0.538,-7.852 -0.001,-16.177 -6.549,-30.797 -17.149,-41.401 m -103.822,26.958 c -0.127,0.16 -0.352,0.487 -0.568,0.979 -0.481,1.045 -0.967,2.726 -1.298,4.755 -0.335,2.032 -0.533,4.424 -0.533,6.974 -0.003,4.006 0.498,7.639 1.224,10.063 0.162,0.553 0.339,1.033 0.513,1.439 -0.489,-3.184 -0.744,-6.445 -0.745,-9.767 10e-4,-4.997 0.593,-9.852 1.679,-14.518 -0.089,0.028 -0.177,0.058 -0.272,0.075 m 62.421,42.765 c 9.713,-0.001 18.481,-3.929 24.849,-10.293 6.364,-6.368 10.292,-15.137 10.293,-24.85 -0.001,-9.712 -3.929,-18.481 -10.293,-24.849 -6.368,-6.364 -15.136,-10.292 -24.849,-10.293 -9.713,0.001 -18.482,3.929 -24.849,10.293 -6.364,6.368 -10.291,15.137 -10.293,24.849 0.002,9.713 3.929,18.482 10.293,24.85 6.367,6.364 15.136,10.292 24.849,10.293 M -104.998,53.2 c 10.604,10.6 25.226,17.148 41.401,17.15 16.177,-0.002 30.797,-6.55 41.401,-17.15 6.967,-6.968 12.166,-15.679 14.924,-25.419 -2.696,1.991 -6.19,4.332 -10.45,6.678 -10.838,5.97 -26.59,11.948 -46.177,11.948 -19.538,0.002 -34.545,-5.464 -44.648,-10.95 -4.948,-2.687 -8.72,-5.372 -11.306,-7.434 2.776,9.642 7.947,18.267 14.855,25.177 M 5.059,21.632 c -0.47,1.561 -1.021,2.9 -1.817,4.044 -0.403,0.569 -0.875,1.102 -1.516,1.547 -0.631,0.441 -1.488,0.78 -2.413,0.776 -0.391,0 -0.759,-0.091 -1.093,-0.244 -7.086,27.531 -32.074,47.871 -61.817,47.872 -29.742,-10e-4 -54.731,-20.342 -61.816,-47.872 -0.334,0.153 -0.702,0.244 -1.093,0.244 -0.925,0.004 -1.783,-0.335 -2.413,-0.776 -0.561,-0.388 -0.993,-0.847 -1.362,-1.335 -0.642,-0.858 -1.114,-1.827 -1.528,-2.924 -0.611,-1.643 -1.069,-3.581 -1.39,-5.761 -0.32,-2.178 -0.495,-4.592 -0.495,-7.139 0.005,-4.441 0.522,-8.457 1.442,-11.569 0.47,-1.561 1.021,-2.9 1.816,-4.044 0.404,-0.569 0.875,-1.102 1.517,-1.547 0.63,-0.441 1.488,-0.78 2.413,-0.776 0.755,0 1.431,0.321 1.912,0.83 8.039,-26.054 32.304,-44.985 60.997,-44.986 28.693,10e-4 52.958,18.932 60.997,44.985 0.481,-0.508 1.158,-0.829 1.913,-0.829 0.925,-0.004 1.782,0.335 2.413,0.776 0.561,0.388 0.992,0.846 1.362,1.335 0.642,0.858 1.113,1.827 1.527,2.924 0.612,1.643 1.07,3.581 1.391,5.761 0.32,2.178 0.495,4.592 0.495,7.139 C 6.497,14.505 5.98,18.52 5.059,21.632"
           style="fill:#ffffff;fill-opacity:1;fill-rule:nonzero;stroke:#ffffff"
           id="path92" /></g><g
         id="g94"
         transform="translate(398.9136,660.2661)"
         style="fill:#ffffff;stroke:#ffffff"><path
           d="m 0,0 c -0.353,-1.208 -0.782,-2.108 -1.075,-2.513 -0.045,-0.064 -0.072,-0.092 -0.105,-0.131 -0.092,-0.018 -0.179,-0.048 -0.268,-0.075 1.086,4.666 1.679,9.521 1.679,14.518 0,2.597 -0.173,5.151 -0.475,7.667 0.112,0.253 0.176,0.518 0.203,0.789 C 0.236,19.349 0.492,18.258 0.691,17.037 1.027,15.005 1.224,12.614 1.223,10.063 1.228,6.057 0.727,2.424 0,0 Z M -22.196,-29.602 C -32.8,-40.201 -47.42,-46.749 -63.597,-46.75 c -16.175,10e-4 -30.797,6.549 -41.401,17.148 -10.6,10.604 -17.148,25.224 -17.148,41.401 0,2.76 0.205,5.47 0.573,8.127 0.508,0.107 0.99,0.361 1.374,0.766 l 0.001,0.001 c 0.165,0.174 5.143,5.305 14.616,10.366 5.13,2.74 11.581,5.456 19.304,7.379 -2.12,-1.44 -4.097,-3.074 -5.901,-4.878 -7.309,-7.307 -11.84,-17.428 -11.838,-28.582 -0.002,-11.153 4.529,-21.275 11.838,-28.581 7.307,-7.311 17.429,-11.84 28.582,-11.839 11.154,-10e-4 21.275,4.528 28.581,11.839 7.311,7.306 11.84,17.428 11.84,28.581 0,11.154 -4.529,21.275 -11.84,28.582 -1.597,1.599 -3.337,3.055 -5.185,4.369 7.825,-2.148 14.525,-5.116 19.933,-8.093 5.129,-2.824 9.098,-5.648 11.768,-7.75 1.276,-1.005 2.246,-1.839 2.915,-2.435 0.344,-2.569 0.538,-5.187 0.538,-7.852 -0.001,-16.177 -6.549,-30.797 -17.149,-41.401 z m -103.822,26.958 c -0.127,0.16 -0.352,0.487 -0.568,0.979 -0.481,1.045 -0.967,2.726 -1.298,4.755 -0.335,2.032 -0.533,4.424 -0.533,6.974 -0.003,4.006 0.498,7.639 1.224,10.063 0.162,0.553 0.339,1.033 0.513,1.439 -0.489,-3.184 -0.744,-6.445 -0.745,-9.767 10e-4,-4.997 0.593,-9.852 1.679,-14.518 -0.089,0.028 -0.177,0.058 -0.272,0.075 z m 62.421,42.765 c 9.713,-0.001 18.481,-3.929 24.849,-10.293 6.364,-6.368 10.292,-15.137 10.293,-24.85 -0.001,-9.712 -3.929,-18.481 -10.293,-24.849 -6.368,-6.364 -15.136,-10.292 -24.849,-10.293 -9.713,0.001 -18.482,3.929 -24.849,10.293 -6.364,6.368 -10.291,15.137 -10.293,24.849 0.002,9.713 3.929,18.482 10.293,24.85 6.367,6.364 15.136,10.292 24.849,10.293 z M -104.998,53.2 c 10.604,10.6 25.226,17.148 41.401,17.15 16.177,-0.002 30.797,-6.55 41.401,-17.15 6.967,-6.968 12.166,-15.679 14.924,-25.419 -2.696,1.991 -6.19,4.332 -10.45,6.678 -10.838,5.97 -26.59,11.948 -46.177,11.948 -19.538,0.002 -34.545,-5.464 -44.648,-10.95 -4.948,-2.687 -8.72,-5.372 -11.306,-7.434 2.776,9.642 7.947,18.267 14.855,25.177 z M 5.059,21.632 c -0.47,1.561 -1.021,2.9 -1.817,4.044 -0.403,0.569 -0.875,1.102 -1.516,1.547 -0.631,0.441 -1.488,0.78 -2.413,0.776 -0.391,0 -0.759,-0.091 -1.093,-0.244 -7.086,27.531 -32.074,47.871 -61.817,47.872 -29.742,-10e-4 -54.731,-20.342 -61.816,-47.872 -0.334,0.153 -0.702,0.244 -1.093,0.244 -0.925,0.004 -1.783,-0.335 -2.413,-0.776 -0.561,-0.388 -0.993,-0.847 -1.362,-1.335 -0.642,-0.858 -1.114,-1.827 -1.528,-2.924 -0.611,-1.643 -1.069,-3.581 -1.39,-5.761 -0.32,-2.178 -0.495,-4.592 -0.495,-7.139 0.005,-4.441 0.522,-8.457 1.442,-11.569 0.47,-1.561 1.021,-2.9 1.816,-4.044 0.404,-0.569 0.875,-1.102 1.517,-1.547 0.63,-0.441 1.488,-0.78 2.413,-0.776 0.755,0 1.431,0.321 1.912,0.83 8.039,-26.054 32.304,-44.985 60.997,-44.986 28.693,10e-4 52.958,18.932 60.997,44.985 0.481,-0.508 1.158,-0.829 1.913,-0.829 0.925,-0.004 1.782,0.335 2.413,0.776 0.561,0.388 0.992,0.846 1.362,1.335 0.642,0.858 1.113,1.827 1.527,2.924 0.612,1.643 1.07,3.581 1.391,5.761 0.32,2.178 0.495,4.592 0.495,7.139 C 6.497,14.505 5.98,18.52 5.059,21.632 Z"
           style="fill:#ffffff;stroke:#ffffff;stroke-width:1;stroke-linecap:butt;stroke-linejoin:miter;stroke-miterlimit:10;stroke-dasharray:none;stroke-opacity:1"
           id="path96" /></g><g
         id="g1006"
         style="fill:#ffffff;stroke:#ffffff"><g
           id="g98"
           transform="translate(335.3169,654.2861)"
           style="fill:#ffffff;stroke:#ffffff"><path
             d="m 0,0 c 5.866,0 10.622,4.756 10.622,10.622 0,5.866 -4.756,10.621 -10.622,10.621 -5.866,0 -10.622,-4.755 -10.622,-10.621 C -10.622,4.756 -5.866,0 0,0"
             style="fill:#ffffff;fill-opacity:1;fill-rule:nonzero;stroke:#ffffff"
             id="path100" /></g><g
           id="g102"
           transform="translate(335.3169,654.2861)"
           style="fill:#ffffff;stroke:#ffffff"><path
             d="m 0,0 c 5.866,0 10.622,4.756 10.622,10.622 0,5.866 -4.756,10.621 -10.622,10.621 -5.866,0 -10.622,-4.755 -10.622,-10.621 C -10.622,4.756 -5.866,0 0,0 Z"
             style="fill:#ffffff;stroke:#ffffff;stroke-width:1;stroke-linecap:butt;stroke-linejoin:miter;stroke-miterlimit:10;stroke-dasharray:none;stroke-opacity:1"
             id="path104" /></g></g></g></g></svg>
