<?xml version="1.0" encoding="UTF-8" standalone="no"?>
<!-- Created with Inkscape (http://www.inkscape.org/) -->

<svg
   version="1.1"
   id="svg2"
   width="186.29599"
   height="169.75333"
   viewBox="0 0 186.29599 169.75333"
   xml:space="preserve"
   xmlns="http://www.w3.org/2000/svg"
   xmlns:svg="http://www.w3.org/2000/svg"><defs
     id="defs6"><clipPath
       clipPathUnits="userSpaceOnUse"
       id="clipPath1305"><g
         id="g1309"><path
           d="M 0,1080 H 1920 V 0 H 0 Z"
           id="path1307" /></g></clipPath></defs><g
     id="g10"
     transform="matrix(1.3333333,0,0,-1.3333333,-688.30345,979.90878)"><g
       id="g1027"
       clip-path="url(#clipPath1305)"
       style="fill:#ffffff;stroke:#ffffff"><g
         id="g114"
         transform="translate(649.0166,659.5986)"
         style="fill:#ffffff;stroke:#ffffff"><path
           d="m 0,0 c -0.35,-1.194 -0.774,-2.086 -1.064,-2.486 -0.044,-0.062 -0.071,-0.091 -0.103,-0.129 -0.091,-0.017 -0.177,-0.047 -0.265,-0.074 1.075,4.617 1.661,9.42 1.661,14.364 0,3.288 -0.253,6.517 -0.737,9.67 0.445,-1.042 0.885,-2.611 1.191,-4.488 C 1.015,14.846 1.21,12.48 1.21,9.957 1.214,5.993 0.718,2.398 0,0 m -21.963,-29.29 c -10.492,-10.488 -24.959,-16.967 -40.965,-16.968 -16.007,0.001 -30.473,6.48 -40.965,16.968 -10.488,10.492 -16.967,24.959 -16.969,40.965 10e-4,10.037 2.551,19.468 7.038,27.694 2.304,-2.291 6.546,-6.19 12.32,-10.117 4.022,-2.733 8.788,-5.47 14.153,-7.665 -5.411,-6.029 -8.386,-13.76 -8.386,-21.891 0,-18.103 14.728,-32.83 32.83,-32.83 18.103,0 32.83,14.727 32.83,32.83 0,8.622 -3.456,16.969 -9.505,23.083 8.7,3.776 15.765,8.727 20.726,12.833 2.533,2.098 4.518,3.97 5.905,5.356 5.05,-8.595 7.955,-18.596 7.956,-29.293 -0.001,-16.006 -6.48,-30.473 -16.968,-40.965 m -102.729,26.675 c -0.125,0.157 -0.348,0.481 -0.563,0.968 -0.476,1.034 -0.957,2.697 -1.284,4.704 -0.332,2.011 -0.527,4.377 -0.527,6.9 -0.004,3.965 0.492,7.56 1.21,9.958 0.16,0.547 0.335,1.021 0.507,1.423 -0.484,-3.151 -0.735,-6.377 -0.736,-9.663 10e-4,-4.944 0.587,-9.748 1.661,-14.364 -0.089,0.027 -0.176,0.057 -0.268,0.074 m 41.644,21.505 c 0.262,0.275 0.442,0.595 0.555,0.932 5.258,-1.68 10.989,-2.76 17.076,-2.76 1.151,0 2.315,0.038 3.491,0.118 6.302,0.428 12.17,1.802 17.521,3.692 0.128,-0.354 0.329,-0.687 0.621,-0.963 5.615,-5.307 8.707,-12.486 8.707,-20.213 0,-15.346 -12.484,-27.83 -27.83,-27.83 -15.345,0 -27.83,12.484 -27.83,27.83 0,7.18 2.731,13.997 7.689,19.194 m -20.845,33.751 c 10.492,10.488 24.958,16.967 40.965,16.968 16.006,-10e-4 30.473,-6.48 40.965,-16.968 2.223,-2.224 4.253,-4.636 6.092,-7.193 -1.973,-2.041 -6.183,-6.098 -12.156,-10.25 -8.432,-5.866 -20.312,-11.866 -34.253,-12.807 -1.055,-0.072 -2.101,-0.106 -3.137,-0.106 -6.57,0 -12.754,1.389 -18.356,3.501 -8.401,3.162 -15.476,7.96 -20.417,11.965 -2.472,2.002 -4.412,3.804 -5.723,5.094 -0.448,0.441 -0.816,0.817 -1.115,1.127 2.097,3.116 4.487,6.02 7.135,8.669 M 5.006,21.404 c -0.465,1.545 -1.011,2.87 -1.798,4.001 -0.399,0.564 -0.866,1.092 -1.5,1.532 -0.625,0.436 -1.473,0.771 -2.388,0.767 -0.387,0 -0.751,-0.089 -1.081,-0.24 -7.012,27.241 -31.738,47.367 -61.167,47.369 -29.43,-0.002 -54.155,-20.128 -61.167,-47.369 -0.33,0.151 -0.694,0.24 -1.081,0.24 -0.915,0.005 -1.763,-0.33 -2.388,-0.767 -0.555,-0.384 -0.982,-0.838 -1.348,-1.321 -0.635,-0.849 -1.102,-1.808 -1.511,-2.893 -0.606,-1.626 -1.059,-3.544 -1.377,-5.701 -0.316,-2.155 -0.489,-4.544 -0.489,-7.065 0.004,-4.394 0.516,-8.367 1.427,-11.446 0.465,-1.545 1.01,-2.87 1.797,-4.001 0.399,-0.564 0.867,-1.092 1.501,-1.532 0.625,-0.436 1.473,-0.771 2.388,-0.767 0.747,0 1.416,0.317 1.892,0.82 7.954,-25.78 31.965,-44.511 60.356,-44.513 28.39,0.002 52.401,18.733 60.356,44.512 0.476,-0.503 1.145,-0.82 1.892,-0.82 0.915,-0.004 1.763,0.331 2.388,0.768 0.555,0.384 0.981,0.838 1.348,1.321 0.635,0.849 1.101,1.808 1.511,2.893 0.605,1.626 1.059,3.544 1.377,5.701 0.315,2.155 0.489,4.543 0.489,7.064 -0.004,4.394 -0.516,8.368 -1.427,11.447"
           style="fill:#ffffff;fill-opacity:1;fill-rule:nonzero;stroke:#ffffff"
           id="path116" /></g><g
         id="g118"
         transform="translate(649.0166,659.5986)"
         style="fill:#ffffff;stroke:#ffffff"><path
           d="m 0,0 c -0.35,-1.194 -0.774,-2.086 -1.064,-2.486 -0.044,-0.062 -0.071,-0.091 -0.103,-0.129 -0.091,-0.017 -0.177,-0.047 -0.265,-0.074 1.075,4.617 1.661,9.42 1.661,14.364 0,3.288 -0.253,6.517 -0.737,9.67 0.445,-1.042 0.885,-2.611 1.191,-4.488 C 1.015,14.846 1.21,12.48 1.21,9.957 1.214,5.993 0.718,2.398 0,0 Z m -21.963,-29.29 c -10.492,-10.488 -24.959,-16.967 -40.965,-16.968 -16.007,0.001 -30.473,6.48 -40.965,16.968 -10.488,10.492 -16.967,24.959 -16.969,40.965 10e-4,10.037 2.551,19.468 7.038,27.694 2.304,-2.291 6.546,-6.19 12.32,-10.117 4.022,-2.733 8.788,-5.47 14.153,-7.665 -5.411,-6.029 -8.386,-13.76 -8.386,-21.891 0,-18.103 14.728,-32.83 32.83,-32.83 18.103,0 32.83,14.727 32.83,32.83 0,8.622 -3.456,16.969 -9.505,23.083 8.7,3.776 15.765,8.727 20.726,12.833 2.533,2.098 4.518,3.97 5.905,5.356 5.05,-8.595 7.955,-18.596 7.956,-29.293 -0.001,-16.006 -6.48,-30.473 -16.968,-40.965 z m -102.729,26.675 c -0.125,0.157 -0.348,0.481 -0.563,0.968 -0.476,1.034 -0.957,2.697 -1.284,4.704 -0.332,2.011 -0.527,4.377 -0.527,6.9 -0.004,3.965 0.492,7.56 1.21,9.958 0.16,0.547 0.335,1.021 0.507,1.423 -0.484,-3.151 -0.735,-6.377 -0.736,-9.663 10e-4,-4.944 0.587,-9.748 1.661,-14.364 -0.089,0.027 -0.176,0.057 -0.268,0.074 z m 41.644,21.505 c 0.262,0.275 0.442,0.595 0.555,0.932 5.258,-1.68 10.989,-2.76 17.076,-2.76 1.151,0 2.315,0.038 3.491,0.118 6.302,0.428 12.17,1.802 17.521,3.692 0.128,-0.354 0.329,-0.687 0.621,-0.963 5.615,-5.307 8.707,-12.486 8.707,-20.213 0,-15.346 -12.484,-27.83 -27.83,-27.83 -15.345,0 -27.83,12.484 -27.83,27.83 0,7.18 2.731,13.997 7.689,19.194 z m -20.845,33.751 c 10.492,10.488 24.958,16.967 40.965,16.968 16.006,-10e-4 30.473,-6.48 40.965,-16.968 2.223,-2.224 4.253,-4.636 6.092,-7.193 -1.973,-2.041 -6.183,-6.098 -12.156,-10.25 -8.432,-5.866 -20.312,-11.866 -34.253,-12.807 -1.055,-0.072 -2.101,-0.106 -3.137,-0.106 -6.57,0 -12.754,1.389 -18.356,3.501 -8.401,3.162 -15.476,7.96 -20.417,11.965 -2.472,2.002 -4.412,3.804 -5.723,5.094 -0.448,0.441 -0.816,0.817 -1.115,1.127 2.097,3.116 4.487,6.02 7.135,8.669 z M 5.006,21.404 c -0.465,1.545 -1.011,2.87 -1.798,4.001 -0.399,0.564 -0.866,1.092 -1.5,1.532 -0.625,0.436 -1.473,0.771 -2.388,0.767 -0.387,0 -0.751,-0.089 -1.081,-0.24 -7.012,27.241 -31.738,47.367 -61.167,47.369 -29.43,-0.002 -54.155,-20.128 -61.167,-47.369 -0.33,0.151 -0.694,0.24 -1.081,0.24 -0.915,0.005 -1.763,-0.33 -2.388,-0.767 -0.555,-0.384 -0.982,-0.838 -1.348,-1.321 -0.635,-0.849 -1.102,-1.808 -1.511,-2.893 -0.606,-1.626 -1.059,-3.544 -1.377,-5.701 -0.316,-2.155 -0.489,-4.544 -0.489,-7.065 0.004,-4.394 0.516,-8.367 1.427,-11.446 0.465,-1.545 1.01,-2.87 1.797,-4.001 0.399,-0.564 0.867,-1.092 1.501,-1.532 0.625,-0.436 1.473,-0.771 2.388,-0.767 0.747,0 1.416,0.317 1.892,0.82 7.954,-25.78 31.965,-44.511 60.356,-44.513 28.39,0.002 52.401,18.733 60.356,44.512 0.476,-0.503 1.145,-0.82 1.892,-0.82 0.915,-0.004 1.763,0.331 2.388,0.768 0.555,0.384 0.981,0.838 1.348,1.321 0.635,0.849 1.101,1.808 1.511,2.893 0.605,1.626 1.059,3.544 1.377,5.701 0.315,2.155 0.489,4.543 0.489,7.064 -0.004,4.394 -0.516,8.368 -1.427,11.447 z"
           style="fill:#ffffff;stroke:#ffffff;stroke-width:1;stroke-linecap:butt;stroke-linejoin:miter;stroke-miterlimit:10;stroke-dasharray:none;stroke-opacity:1"
           id="path120" /></g><g
         id="g122"
         transform="translate(586.0884,645.6831)"
         style="fill:#ffffff;stroke:#ffffff"><path
           d="m 0,0 c 5.805,0 10.51,4.707 10.51,10.511 0,5.805 -4.705,10.51 -10.51,10.51 -5.804,0 -10.51,-4.705 -10.51,-10.51 C -10.51,4.707 -5.804,0 0,0"
           style="fill:#ffffff;fill-opacity:1;fill-rule:nonzero;stroke:#ffffff"
           id="path124" /></g><g
         id="g126"
         transform="translate(586.0884,645.6831)"
         style="fill:#ffffff;stroke:#ffffff"><path
           d="m 0,0 c 5.805,0 10.51,4.707 10.51,10.511 0,5.805 -4.705,10.51 -10.51,10.51 -5.804,0 -10.51,-4.705 -10.51,-10.51 C -10.51,4.707 -5.804,0 0,0 Z"
           style="fill:#ffffff;stroke:#ffffff;stroke-width:1;stroke-linecap:butt;stroke-linejoin:miter;stroke-miterlimit:10;stroke-dasharray:none;stroke-opacity:1"
           id="path128" /></g></g></g></svg>
