<?xml version="1.0" encoding="UTF-8" standalone="no"?>
<!-- Created with Inkscape (http://www.inkscape.org/) -->

<svg
   version="1.1"
   id="svg2"
   width="170.78799"
   height="170.78799"
   viewBox="0 0 170.78799 170.78799"
   sodipodi:docname="Icones 2D.ai"
   xml:space="preserve"
   xmlns:inkscape="http://www.inkscape.org/namespaces/inkscape"
   xmlns:sodipodi="http://sodipodi.sourceforge.net/DTD/sodipodi-0.dtd"
   xmlns="http://www.w3.org/2000/svg"
   xmlns:svg="http://www.w3.org/2000/svg"><defs
     id="defs6"><clipPath
       clipPathUnits="userSpaceOnUse"
       id="clipPath36"><path
         d="M 0,1080 H 1920 V 0 H 0 Z"
         id="path34" /></clipPath></defs><sodipodi:namedview
     id="namedview4"
     pagecolor="#ffffff"
     bordercolor="#000000"
     borderopacity="0.25"
     inkscape:showpageshadow="2"
     inkscape:pageopacity="0.0"
     inkscape:pagecheckerboard="0"
     inkscape:deskcolor="#d1d1d1"
     showgrid="false" /><g
     id="g10"
     inkscape:groupmode="layer"
     inkscape:label="Page 1"
     transform="matrix(1.3333333,0,0,-1.3333333,-31.333065,981.16678)"><text
       xml:space="preserve"
       transform="matrix(1,0,0,-1,40.8984,539.5303)"
       style="font-variant:normal;font-weight:normal;font-stretch:normal;font-size:41.3384px;font-family:'Gobold Lowplus';-inkscape-font-specification:GoboldLowplus;writing-mode:lr-tb;fill:#100f0d;fill-opacity:1;fill-rule:nonzero;stroke:none"
       id="text28"><tspan
         x="0 20.834553 52.375751 62.544998 72.714249"
         y="0"
         sodipodi:role="line"
         id="tspan12">Smile</tspan><tspan
         x="174.90277 193.95978 214.09157 224.26082 245.09537 260.14255 280.97711 301.81165 316.85883 337.69339"
         y="-229.01474"
         sodipodi:role="line"
         id="tspan14">Existentes</tspan><tspan
         x="620.6134 642.27472 663.10925 684.31586 705.15045"
         y="157.00323"
         sodipodi:role="line"
         id="tspan16">Novos</tspan><tspan
         x="242.53239 263.61499 284.44952 305.28409 326.11865 471.46445 501.51746 522.35205 543.18658 564.02112 579.0683 593.24738 748.39038 766.62061 776.99658 797.83112 818.66565"
         y="-3.6715876e-14"
         sodipodi:role="line"
         id="tspan18">RobbbMonstroLíder</tspan><tspan
         x="309.45926 329.63242 339.77686 360.61139 381.44595 402.28052"
         y="444.01575"
         sodipodi:role="line"
         id="tspan20">Pipoca</tspan><tspan
         x="594.94226 615.59076 636.42535 667.96655 688.80109 703.00085 723.83539 738.88257"
         y="442.48624"
         sodipodi:role="line"
         id="tspan22">Camarote</tspan><tspan
         x="968.76538 989.41394 1010.2485 1025.337 1046.1715 1067.0061 1087.8407 1250.0732 1271.2798 1292.1144 1302.573 1466.0664 1477.2278 1508.7689 1529.6035 1550.438 1651.3864 1670.4434 1691.278 1706.3252 1727.1597 1737.329 1758.1635 1778.998"
         y="-1.4686351e-13"
         sodipodi:role="line"
         id="tspan24">CoraçãoAnjoImuneEstaleca</tspan><tspan
         x="916.55499 937.59625 947.7655 968.60004 978.85199 997.49561 1018.3301 1039.1647 1241.8882 1262.0614 1282.8959 1296.8848 1317.7194 1338.554 1359.3884"
         y="444.01575"
         sodipodi:role="line"
         id="tspan26">Big FoneParedão</tspan></text><g
       id="g30"><g
         id="g32"
         clip-path="url(#clipPath36)"><g
           id="g38"
           transform="translate(1064.1133,226.8008)"><path
             d="m 0,0 c -0.342,-1.508 -1.096,-2.969 -1.891,-4.512 -0.351,-0.684 -0.716,-1.39 -1.055,-2.121 -3.224,-6.959 -5.95,-12.749 -8.575,-18.222 -0.768,-1.603 -1.069,-1.769 -2.93,-1.627 -5.664,0.442 -11.532,1.61 -18.471,3.675 -6.527,1.944 -12.906,4.492 -18.958,7.572 -8.857,4.508 -17.324,10.166 -25.168,16.814 -3.859,3.27 -6.941,6.124 -9.696,8.98 -9.065,9.392 -16.216,18.975 -21.867,29.3 -5.484,10.022 -9.432,20.67 -11.733,31.647 -0.736,3.511 -1.158,6.459 -1.328,9.277 -0.111,1.845 0.026,2.085 1.63,2.856 3.762,1.811 7.614,3.613 11.339,5.357 3.844,1.799 7.821,3.66 11.717,5.538 0.522,0.251 1.124,0.434 1.85,0.618 h 0.602 c 0.593,-0.033 1.135,-0.207 2.07,-1.668 4.487,-7.02 9.08,-14.136 13.521,-21.017 l 1.092,-1.694 c 0.972,-1.503 0.885,-2.307 -0.389,-3.583 -0.791,-0.792 -1.579,-1.588 -2.366,-2.384 -2.012,-2.035 -4.093,-4.137 -6.187,-6.128 -2.152,-2.044 -2.98,-4.616 -2.461,-7.647 1.079,-6.307 3.425,-12.344 6.972,-17.942 5.749,-9.073 13.331,-16.33 22.534,-21.568 4.984,-2.836 10.28,-4.726 15.74,-5.616 2.961,-0.483 5.487,0.347 7.508,2.466 2.114,2.218 4.345,4.425 6.504,6.558 0.729,0.722 1.459,1.443 2.185,2.167 1.067,1.06 1.966,1.162 3.207,0.367 4.517,-2.896 9.027,-5.8 13.536,-8.705 3.403,-2.191 6.805,-4.382 10.21,-6.57 C -0.502,1.961 -0.116,1.629 0,0.582 Z m 2.013,6.658 c -3.403,2.186 -6.804,4.376 -10.204,6.566 -4.513,2.907 -9.026,5.813 -13.545,8.709 -3.329,2.135 -7.001,1.735 -9.82,-1.072 -0.724,-0.72 -1.449,-1.437 -2.175,-2.154 -2.185,-2.161 -4.446,-4.395 -6.615,-6.671 -0.8,-0.839 -1.586,-1.088 -2.808,-0.89 -4.834,0.789 -9.534,2.469 -13.966,4.992 -8.442,4.804 -15.398,11.463 -20.675,19.794 -3.169,5.002 -5.264,10.383 -6.224,15.994 -0.221,1.293 0.019,2.08 0.885,2.902 2.153,2.046 4.264,4.179 6.305,6.243 0.782,0.79 1.563,1.581 2.349,2.367 3.054,3.06 3.432,6.593 1.093,10.217 l -1.093,1.693 c -4.437,6.876 -9.027,13.988 -13.51,20.997 -1.083,1.695 -2.92,3.964 -6.363,4.117 l -0.116,0.002 h -0.991 c -0.211,0 -0.422,-0.026 -0.627,-0.075 -0.96,-0.233 -2.079,-0.528 -3.204,-1.07 -3.87,-1.865 -7.832,-3.72 -11.664,-5.513 -3.738,-1.749 -7.602,-3.557 -11.39,-5.381 -3.573,-1.717 -4.871,-3.951 -4.629,-7.961 0.186,-3.084 0.641,-6.277 1.431,-10.048 2.408,-11.488 6.538,-22.626 12.273,-33.108 5.88,-10.746 13.307,-20.702 22.703,-30.438 2.881,-2.987 6.086,-5.955 10.084,-9.344 8.158,-6.913 16.97,-12.799 26.193,-17.494 6.338,-3.227 13.016,-5.895 19.851,-7.93 7.308,-2.176 13.528,-3.408 19.575,-3.88 0.379,-0.029 0.744,-0.044 1.093,-0.044 3.393,0 5.476,1.407 7.041,4.67 2.635,5.494 5.369,11.304 8.604,18.285 0.292,0.63 0.615,1.258 0.957,1.921 0.969,1.88 1.971,3.825 2.43,6.153 0.035,0.17 0.051,0.342 0.051,0.515 V 0.713 L 5.302,0.95 C 5.074,3.48 3.968,5.401 2.013,6.658"
             style="fill:#100f0d;fill-opacity:1;fill-rule:nonzero;stroke:none"
             id="path40" /></g><g
           id="g42"
           transform="translate(1013.8428,350.3164)"><path
             d="m 0,0 -2.095,-24.089 c -0.038,-0.44 0.102,-0.876 0.385,-1.213 0.283,-0.338 0.691,-0.548 1.13,-0.585 l 6.995,-0.592 -9.598,-23.409 0.907,18.484 c 0.044,0.906 -0.649,1.681 -1.553,1.739 l -6.871,0.438 z m -13.129,-32.398 7.455,-0.476 -1.298,-26.504 c -0.04,-0.808 0.509,-1.527 1.297,-1.703 0.12,-0.025 0.242,-0.039 0.363,-0.039 0.661,0 1.275,0.397 1.535,1.031 l 14.123,34.443 c 0.201,0.488 0.155,1.043 -0.119,1.494 -0.277,0.451 -0.75,0.744 -1.278,0.789 L 1.358,-22.72 4.389,12.154 C 4.46,12.983 3.906,13.738 3.095,13.919 2.28,14.099 1.462,13.65 1.176,12.869 l -15.758,-43.04 c -0.18,-0.492 -0.117,-1.039 0.169,-1.477 0.285,-0.439 0.763,-0.718 1.284,-0.75"
             style="fill:#100f0d;fill-opacity:1;fill-rule:nonzero;stroke:none"
             id="path44" /></g><g
           id="g46"
           transform="translate(1050.5342,313.9033)"><path
             d="M 0,0 C 0.598,0.682 0.537,1.717 -0.135,2.326 L -6.485,8.066 27.262,28.695 6.005,6.235 C 5.702,5.915 5.539,5.487 5.553,5.046 5.565,4.604 5.751,4.187 6.073,3.885 L 12.425,-2.1 -15.621,-17.806 Z m -23.243,-25.637 c 0.276,0 0.556,0.068 0.81,0.212 l 38.454,21.533 c 0.461,0.259 0.771,0.721 0.836,1.246 0.064,0.524 -0.124,1.048 -0.508,1.411 L 9.561,5.161 38.256,35.485 c 0.572,0.603 0.609,1.539 0.086,2.185 -0.525,0.647 -1.447,0.805 -2.156,0.372 L -10.112,9.74 C -10.559,9.467 -10.851,9 -10.899,8.478 c -0.048,-0.521 0.15,-1.035 0.54,-1.386 L -3.575,0.96 -24.491,-22.882 c -0.533,-0.608 -0.551,-1.511 -0.042,-2.14 0.323,-0.4 0.803,-0.615 1.29,-0.615"
             style="fill:#100f0d;fill-opacity:1;fill-rule:nonzero;stroke:none"
             id="path48" /></g><g
           id="g50"
           transform="translate(1073.9766,277.3926)"><path
             d="m 0,0 c -0.436,-0.065 -0.829,-0.299 -1.091,-0.654 -0.263,-0.353 -0.374,-0.797 -0.308,-1.233 l 1.033,-6.944 -24.988,3.947 18.195,3.377 c 0.892,0.166 1.486,1.017 1.334,1.911 L -6.981,7.19 23.923,3.513 Z m 36.717,5.334 -45.512,5.417 c -0.518,0.061 -1.038,-0.126 -1.399,-0.505 -0.361,-0.379 -0.521,-0.906 -0.433,-1.423 l 1.254,-7.364 -26.089,-4.843 c -0.795,-0.147 -1.369,-0.847 -1.358,-1.654 0.011,-0.81 0.603,-1.492 1.401,-1.618 l 36.771,-5.807 0.258,-0.021 c 0.434,0 0.856,0.171 1.169,0.482 0.375,0.372 0.551,0.899 0.473,1.423 l -1.123,7.536 34.633,5.087 c 0.824,0.121 1.431,0.833 1.419,1.665 -0.012,0.832 -0.638,1.526 -1.464,1.625"
             style="fill:#100f0d;fill-opacity:1;fill-rule:nonzero;stroke:none"
             id="path52" /></g><g
           id="g54"
           transform="translate(1387.7725,699.4976)"><path
             d="m 0,0 c 11.638,9.172 28.698,-0.896 25.919,-15.45 -0.431,-2.256 -1.131,-4.719 -2.152,-7.41 -0.692,-1.821 -0.492,-3.869 0.564,-5.505 11.114,-17.218 5.816,-36.261 -15.152,-40.263 -2.122,-0.405 -3.858,-1.969 -4.549,-4.016 -7.484,-22.139 -39.165,-18.194 -49.809,-5.174 -3.343,4.09 -6.092,8.302 -8.309,12.22 -3.355,5.927 -11.977,5.927 -15.331,0 -2.217,-3.918 -4.966,-8.13 -8.31,-12.22 -10.643,-13.02 -42.324,-16.965 -49.809,5.174 -0.691,2.047 -2.426,3.611 -4.548,4.016 -20.969,4.002 -26.267,23.045 -15.153,40.263 1.056,1.636 1.256,3.684 0.565,5.505 -1.022,2.691 -1.722,5.154 -2.153,7.41 -2.779,14.554 14.282,24.622 25.918,15.45 l 49.996,-39.409 c 6.545,-5.159 15.773,-5.159 22.318,0 z"
             style="fill:none;stroke:#211d1d;stroke-width:6;stroke-linecap:round;stroke-linejoin:round;stroke-miterlimit:10;stroke-dasharray:none;stroke-opacity:1"
             id="path56" /></g><g
           id="g58"
           transform="translate(1353.3154,703.0107)"><path
             d="m 0,0 c 0,-6.737 -11.952,-12.198 -26.697,-12.198 -14.744,0 -26.698,5.461 -26.698,12.198 0,6.737 11.954,12.198 26.698,12.198 C -11.952,12.198 0,6.737 0,0 Z"
             style="fill:none;stroke:#211d1d;stroke-width:6;stroke-linecap:round;stroke-linejoin:round;stroke-miterlimit:10;stroke-dasharray:none;stroke-opacity:1"
             id="path60" /></g><g
           id="g370"
           inkscape:export-filename="../../../InitialScreenGames/assets/bbb23/simle.vsg.svg"
           inkscape:export-xdpi="96"
           inkscape:export-ydpi="96"
           style="fill:#ffffff;stroke:#ffffff"><g
             id="g62"
             transform="translate(148.0908,671.8291)"
             style="fill:#ffffff;stroke:#ffffff"><path
               d="m 0,0 h -3 c -0.002,-15.9 -6.436,-30.268 -16.855,-40.691 -10.423,-10.418 -24.79,-16.852 -40.69,-16.854 -15.901,0.002 -30.268,6.436 -40.691,16.854 -10.419,10.423 -16.853,24.791 -16.855,40.691 0.002,15.9 6.436,30.268 16.855,40.691 10.423,10.419 24.79,16.853 40.691,16.855 15.9,-0.002 30.267,-6.436 40.69,-16.855 C -9.436,30.268 -3.002,15.9 -3,0 h 3 3 c 10e-4,17.538 -7.117,33.444 -18.612,44.934 -11.49,11.495 -27.395,18.613 -44.933,18.612 -17.539,10e-4 -33.444,-7.117 -44.934,-18.612 -11.495,-11.49 -18.613,-27.396 -18.612,-44.934 -0.001,-17.538 7.117,-33.443 18.612,-44.933 11.49,-11.495 27.395,-18.613 44.934,-18.612 17.538,-10e-4 33.443,7.117 44.933,18.612 C -4.117,-33.443 3.001,-17.538 3,0 Z"
               style="fill:#ffffff;fill-opacity:1;fill-rule:nonzero;stroke:#ffffff"
               id="path64" /></g><g
             id="g66"
             transform="translate(148.0908,671.8291)"
             style="fill:#ffffff;stroke:#ffffff"><path
               d="m 0,0 h -3 c -0.002,-15.9 -6.436,-30.268 -16.855,-40.691 -10.423,-10.418 -24.79,-16.852 -40.69,-16.854 -15.901,0.002 -30.268,6.436 -40.691,16.854 -10.419,10.423 -16.853,24.791 -16.855,40.691 0.002,15.9 6.436,30.268 16.855,40.691 10.423,10.419 24.79,16.853 40.691,16.855 15.9,-0.002 30.267,-6.436 40.69,-16.855 C -9.436,30.268 -3.002,15.9 -3,0 h 3 3 c 10e-4,17.538 -7.117,33.444 -18.612,44.934 -11.49,11.495 -27.395,18.613 -44.933,18.612 -17.539,10e-4 -33.444,-7.117 -44.934,-18.612 -11.495,-11.49 -18.613,-27.396 -18.612,-44.934 -0.001,-17.538 7.117,-33.443 18.612,-44.933 11.49,-11.495 27.395,-18.613 44.934,-18.612 17.538,-10e-4 33.443,7.117 44.933,18.612 C -4.117,-33.443 3.001,-17.538 3,0 Z"
               style="fill:#ffffff;stroke:#ffffff;stroke-width:1;stroke-linecap:butt;stroke-linejoin:miter;stroke-miterlimit:10;stroke-dasharray:none;stroke-opacity:1"
               id="path68" /></g><g
             id="g70"
             transform="translate(62.3682,682.1367)"
             style="fill:#ffffff;stroke:#ffffff"><path
               d="m 0,0 v -1.905 c 0,-1.657 1.343,-3 3,-3 1.657,0 3,1.343 3,3 V 0 C 6,1.657 4.657,3 3,3 1.343,3 0,1.657 0,0"
               style="fill:#ffffff;fill-opacity:1;fill-rule:nonzero;stroke:#ffffff;stroke-width:1;stroke-linecap:butt;stroke-linejoin:miter;stroke-miterlimit:10;stroke-dasharray:none;stroke-opacity:1"
               id="path72" /></g><g
             id="g74"
             transform="translate(106.7227,682.1367)"
             style="fill:#ffffff;stroke:#ffffff"><path
               d="m 0,0 v -1.905 c 0,-1.657 1.343,-3 3,-3 1.657,0 3,1.343 3,3 V 0 C 6,1.657 4.657,3 3,3 1.343,3 0,1.657 0,0"
               style="fill:#ffffff;fill-opacity:1;fill-rule:nonzero;stroke:#ffffff;stroke-width:1;stroke-linecap:butt;stroke-linejoin:miter;stroke-miterlimit:10;stroke-dasharray:none;stroke-opacity:1"
               id="path76" /></g><g
             id="g78"
             transform="translate(116.9268,662.6123)"
             style="fill:#ffffff;stroke:#ffffff"><path
               d="m 0,0 c -0.002,-3.005 -0.766,-5.857 -2.188,-8.511 -2.129,-3.973 -5.781,-7.485 -10.498,-9.995 -4.713,-2.51 -10.469,-4.006 -16.695,-4.005 -8.303,-0.004 -15.766,2.666 -21.041,6.829 -2.64,2.079 -4.731,4.522 -6.153,7.171 -1.422,2.654 -2.186,5.506 -2.188,8.511 0,1.657 -1.343,3 -3,3 -1.657,0 -3,-1.343 -3,-3 -0.002,-4.039 1.046,-7.898 2.901,-11.349 2.787,-5.183 7.347,-9.461 12.966,-12.453 5.623,-2.992 12.329,-4.708 19.515,-4.709 9.58,0.005 18.308,3.045 24.753,8.116 3.22,2.537 5.871,5.592 7.726,9.046 C 4.954,-7.898 6.002,-4.039 6,0 6,1.657 4.657,3 3,3 1.343,3 0,1.657 0,0"
               style="fill:#ffffff;fill-opacity:1;fill-rule:nonzero;stroke:#ffffff"
               id="path80" /></g><g
             id="g82"
             transform="translate(116.9268,662.6123)"
             style="fill:#ffffff;stroke:#ffffff"><path
               d="m 0,0 c -0.002,-3.005 -0.766,-5.857 -2.188,-8.511 -2.129,-3.973 -5.781,-7.485 -10.498,-9.995 -4.713,-2.51 -10.469,-4.006 -16.695,-4.005 -8.303,-0.004 -15.766,2.666 -21.041,6.829 -2.64,2.079 -4.731,4.522 -6.153,7.171 -1.422,2.654 -2.186,5.506 -2.188,8.511 0,1.657 -1.343,3 -3,3 -1.657,0 -3,-1.343 -3,-3 -0.002,-4.039 1.046,-7.898 2.901,-11.349 2.787,-5.183 7.347,-9.461 12.966,-12.453 5.623,-2.992 12.329,-4.708 19.515,-4.709 9.58,0.005 18.308,3.045 24.753,8.116 3.22,2.537 5.871,5.592 7.726,9.046 C 4.954,-7.898 6.002,-4.039 6,0 6,1.657 4.657,3 3,3 1.343,3 0,1.657 0,0 Z"
               style="fill:#ffffff;stroke:#ffffff;stroke-width:1;stroke-linecap:butt;stroke-linejoin:miter;stroke-miterlimit:10;stroke-dasharray:none;stroke-opacity:1"
               id="path84" /></g></g><g
           id="g86"
           transform="translate(1112.9424,735.8887)"><path
             d="M 0,0 H -0.002 -0.035 C -13.202,0 -26.918,-5.932 -38.774,-16.728 -50.486,-6.082 -64.543,0 -77.514,0 c -7.276,-0.004 -13.833,-1.787 -19.524,-5.301 -5.953,-3.686 -10.553,-9.02 -13.68,-15.858 -2.143,-4.699 -3.538,-10.052 -4.145,-15.914 -0.257,-2.481 -0.388,-4.942 -0.388,-7.319 0.006,-9.214 1.881,-17.575 5.732,-25.564 3.515,-7.279 8.632,-14.125 15.648,-20.933 12.685,-12.324 49.858,-35.195 51.434,-36.163 1.124,-0.69 2.393,-1.035 3.663,-1.035 1.279,0 2.557,0.35 3.687,1.05 0.901,0.559 22.193,13.763 31.516,20.199 10.485,7.236 18.53,14.051 24.592,20.833 4.679,5.232 8.26,10.482 10.947,16.047 3.853,7.994 5.728,16.354 5.733,25.563 0,2.338 -0.333,6.66 -0.371,7.145 -0.005,0.06 -0.01,0.119 -0.016,0.178 -0.912,8.775 -3.54,16.282 -7.812,22.314 C 25.393,-8.969 19.99,-4.796 13.441,-2.346 9.267,-0.79 4.747,-0.001 0,0 m -0.035,-7 h 0.033 c 3.913,-0.001 7.612,-0.643 10.991,-1.903 5.068,-1.895 9.43,-5.154 12.801,-9.901 3.363,-4.749 5.734,-11.031 6.562,-18.992 0,0 0.349,-4.467 0.349,-6.596 -0.004,-8.407 -1.77,-15.748 -5.037,-22.524 -2.452,-5.08 -5.765,-9.843 -9.863,-14.424 -6.144,-6.874 -14.061,-13.327 -23.349,-19.737 -9.288,-6.412 -31.226,-20.01 -31.226,-20.01 0,0 -37.943,23.292 -50.222,35.222 -6.146,5.964 -10.948,12.178 -14.217,18.949 -3.266,6.776 -5.032,14.117 -5.037,22.524 0,2.129 0.114,4.325 0.349,6.596 0.55,5.305 1.791,9.87 3.549,13.727 2.645,5.784 6.431,9.988 10.991,12.812 4.562,2.816 9.941,4.254 15.814,4.257 h 0.033 c 10.952,0 23.604,-5.112 34.832,-15.648 1.083,-1.018 2.497,-1.549 3.895,-1.549 h 0.013 0.011 c 1.398,0 2.812,0.531 3.895,1.548 C -23.639,-12.111 -10.988,-7 -0.035,-7"
             style="fill:#211d1d;fill-opacity:1;fill-rule:nonzero;stroke:none"
             id="path88" /></g><g
           id="g90"
           transform="translate(398.9136,660.2661)"><path
             d="m 0,0 c -0.353,-1.208 -0.782,-2.108 -1.075,-2.513 -0.045,-0.064 -0.072,-0.092 -0.105,-0.131 -0.092,-0.018 -0.179,-0.048 -0.268,-0.075 1.086,4.666 1.679,9.521 1.679,14.518 0,2.597 -0.173,5.151 -0.475,7.667 0.112,0.253 0.176,0.518 0.203,0.789 C 0.236,19.349 0.492,18.258 0.691,17.037 1.027,15.005 1.224,12.614 1.223,10.063 1.228,6.057 0.727,2.424 0,0 M -22.196,-29.602 C -32.8,-40.201 -47.42,-46.749 -63.597,-46.75 c -16.175,10e-4 -30.797,6.549 -41.401,17.148 -10.6,10.604 -17.148,25.224 -17.148,41.401 0,2.76 0.205,5.47 0.573,8.127 0.508,0.107 0.99,0.361 1.374,0.766 l 0.001,0.001 c 0.165,0.174 5.143,5.305 14.616,10.366 5.13,2.74 11.581,5.456 19.304,7.379 -2.12,-1.44 -4.097,-3.074 -5.901,-4.878 -7.309,-7.307 -11.84,-17.428 -11.838,-28.582 -0.002,-11.153 4.529,-21.275 11.838,-28.581 7.307,-7.311 17.429,-11.84 28.582,-11.839 11.154,-10e-4 21.275,4.528 28.581,11.839 7.311,7.306 11.84,17.428 11.84,28.581 0,11.154 -4.529,21.275 -11.84,28.582 -1.597,1.599 -3.337,3.055 -5.185,4.369 7.825,-2.148 14.525,-5.116 19.933,-8.093 5.129,-2.824 9.098,-5.648 11.768,-7.75 1.276,-1.005 2.246,-1.839 2.915,-2.435 0.344,-2.569 0.538,-5.187 0.538,-7.852 -0.001,-16.177 -6.549,-30.797 -17.149,-41.401 m -103.822,26.958 c -0.127,0.16 -0.352,0.487 -0.568,0.979 -0.481,1.045 -0.967,2.726 -1.298,4.755 -0.335,2.032 -0.533,4.424 -0.533,6.974 -0.003,4.006 0.498,7.639 1.224,10.063 0.162,0.553 0.339,1.033 0.513,1.439 -0.489,-3.184 -0.744,-6.445 -0.745,-9.767 10e-4,-4.997 0.593,-9.852 1.679,-14.518 -0.089,0.028 -0.177,0.058 -0.272,0.075 m 62.421,42.765 c 9.713,-0.001 18.481,-3.929 24.849,-10.293 6.364,-6.368 10.292,-15.137 10.293,-24.85 -0.001,-9.712 -3.929,-18.481 -10.293,-24.849 -6.368,-6.364 -15.136,-10.292 -24.849,-10.293 -9.713,0.001 -18.482,3.929 -24.849,10.293 -6.364,6.368 -10.291,15.137 -10.293,24.849 0.002,9.713 3.929,18.482 10.293,24.85 6.367,6.364 15.136,10.292 24.849,10.293 M -104.998,53.2 c 10.604,10.6 25.226,17.148 41.401,17.15 16.177,-0.002 30.797,-6.55 41.401,-17.15 6.967,-6.968 12.166,-15.679 14.924,-25.419 -2.696,1.991 -6.19,4.332 -10.45,6.678 -10.838,5.97 -26.59,11.948 -46.177,11.948 -19.538,0.002 -34.545,-5.464 -44.648,-10.95 -4.948,-2.687 -8.72,-5.372 -11.306,-7.434 2.776,9.642 7.947,18.267 14.855,25.177 M 5.059,21.632 c -0.47,1.561 -1.021,2.9 -1.817,4.044 -0.403,0.569 -0.875,1.102 -1.516,1.547 -0.631,0.441 -1.488,0.78 -2.413,0.776 -0.391,0 -0.759,-0.091 -1.093,-0.244 -7.086,27.531 -32.074,47.871 -61.817,47.872 -29.742,-10e-4 -54.731,-20.342 -61.816,-47.872 -0.334,0.153 -0.702,0.244 -1.093,0.244 -0.925,0.004 -1.783,-0.335 -2.413,-0.776 -0.561,-0.388 -0.993,-0.847 -1.362,-1.335 -0.642,-0.858 -1.114,-1.827 -1.528,-2.924 -0.611,-1.643 -1.069,-3.581 -1.39,-5.761 -0.32,-2.178 -0.495,-4.592 -0.495,-7.139 0.005,-4.441 0.522,-8.457 1.442,-11.569 0.47,-1.561 1.021,-2.9 1.816,-4.044 0.404,-0.569 0.875,-1.102 1.517,-1.547 0.63,-0.441 1.488,-0.78 2.413,-0.776 0.755,0 1.431,0.321 1.912,0.83 8.039,-26.054 32.304,-44.985 60.997,-44.986 28.693,10e-4 52.958,18.932 60.997,44.985 0.481,-0.508 1.158,-0.829 1.913,-0.829 0.925,-0.004 1.782,0.335 2.413,0.776 0.561,0.388 0.992,0.846 1.362,1.335 0.642,0.858 1.113,1.827 1.527,2.924 0.612,1.643 1.07,3.581 1.391,5.761 0.32,2.178 0.495,4.592 0.495,7.139 C 6.497,14.505 5.98,18.52 5.059,21.632"
             style="fill:#100f0d;fill-opacity:1;fill-rule:nonzero;stroke:none"
             id="path92" /></g><g
           id="g94"
           transform="translate(398.9136,660.2661)"><path
             d="m 0,0 c -0.353,-1.208 -0.782,-2.108 -1.075,-2.513 -0.045,-0.064 -0.072,-0.092 -0.105,-0.131 -0.092,-0.018 -0.179,-0.048 -0.268,-0.075 1.086,4.666 1.679,9.521 1.679,14.518 0,2.597 -0.173,5.151 -0.475,7.667 0.112,0.253 0.176,0.518 0.203,0.789 C 0.236,19.349 0.492,18.258 0.691,17.037 1.027,15.005 1.224,12.614 1.223,10.063 1.228,6.057 0.727,2.424 0,0 Z M -22.196,-29.602 C -32.8,-40.201 -47.42,-46.749 -63.597,-46.75 c -16.175,10e-4 -30.797,6.549 -41.401,17.148 -10.6,10.604 -17.148,25.224 -17.148,41.401 0,2.76 0.205,5.47 0.573,8.127 0.508,0.107 0.99,0.361 1.374,0.766 l 0.001,0.001 c 0.165,0.174 5.143,5.305 14.616,10.366 5.13,2.74 11.581,5.456 19.304,7.379 -2.12,-1.44 -4.097,-3.074 -5.901,-4.878 -7.309,-7.307 -11.84,-17.428 -11.838,-28.582 -0.002,-11.153 4.529,-21.275 11.838,-28.581 7.307,-7.311 17.429,-11.84 28.582,-11.839 11.154,-10e-4 21.275,4.528 28.581,11.839 7.311,7.306 11.84,17.428 11.84,28.581 0,11.154 -4.529,21.275 -11.84,28.582 -1.597,1.599 -3.337,3.055 -5.185,4.369 7.825,-2.148 14.525,-5.116 19.933,-8.093 5.129,-2.824 9.098,-5.648 11.768,-7.75 1.276,-1.005 2.246,-1.839 2.915,-2.435 0.344,-2.569 0.538,-5.187 0.538,-7.852 -0.001,-16.177 -6.549,-30.797 -17.149,-41.401 z m -103.822,26.958 c -0.127,0.16 -0.352,0.487 -0.568,0.979 -0.481,1.045 -0.967,2.726 -1.298,4.755 -0.335,2.032 -0.533,4.424 -0.533,6.974 -0.003,4.006 0.498,7.639 1.224,10.063 0.162,0.553 0.339,1.033 0.513,1.439 -0.489,-3.184 -0.744,-6.445 -0.745,-9.767 10e-4,-4.997 0.593,-9.852 1.679,-14.518 -0.089,0.028 -0.177,0.058 -0.272,0.075 z m 62.421,42.765 c 9.713,-0.001 18.481,-3.929 24.849,-10.293 6.364,-6.368 10.292,-15.137 10.293,-24.85 -0.001,-9.712 -3.929,-18.481 -10.293,-24.849 -6.368,-6.364 -15.136,-10.292 -24.849,-10.293 -9.713,0.001 -18.482,3.929 -24.849,10.293 -6.364,6.368 -10.291,15.137 -10.293,24.849 0.002,9.713 3.929,18.482 10.293,24.85 6.367,6.364 15.136,10.292 24.849,10.293 z M -104.998,53.2 c 10.604,10.6 25.226,17.148 41.401,17.15 16.177,-0.002 30.797,-6.55 41.401,-17.15 6.967,-6.968 12.166,-15.679 14.924,-25.419 -2.696,1.991 -6.19,4.332 -10.45,6.678 -10.838,5.97 -26.59,11.948 -46.177,11.948 -19.538,0.002 -34.545,-5.464 -44.648,-10.95 -4.948,-2.687 -8.72,-5.372 -11.306,-7.434 2.776,9.642 7.947,18.267 14.855,25.177 z M 5.059,21.632 c -0.47,1.561 -1.021,2.9 -1.817,4.044 -0.403,0.569 -0.875,1.102 -1.516,1.547 -0.631,0.441 -1.488,0.78 -2.413,0.776 -0.391,0 -0.759,-0.091 -1.093,-0.244 -7.086,27.531 -32.074,47.871 -61.817,47.872 -29.742,-10e-4 -54.731,-20.342 -61.816,-47.872 -0.334,0.153 -0.702,0.244 -1.093,0.244 -0.925,0.004 -1.783,-0.335 -2.413,-0.776 -0.561,-0.388 -0.993,-0.847 -1.362,-1.335 -0.642,-0.858 -1.114,-1.827 -1.528,-2.924 -0.611,-1.643 -1.069,-3.581 -1.39,-5.761 -0.32,-2.178 -0.495,-4.592 -0.495,-7.139 0.005,-4.441 0.522,-8.457 1.442,-11.569 0.47,-1.561 1.021,-2.9 1.816,-4.044 0.404,-0.569 0.875,-1.102 1.517,-1.547 0.63,-0.441 1.488,-0.78 2.413,-0.776 0.755,0 1.431,0.321 1.912,0.83 8.039,-26.054 32.304,-44.985 60.997,-44.986 28.693,10e-4 52.958,18.932 60.997,44.985 0.481,-0.508 1.158,-0.829 1.913,-0.829 0.925,-0.004 1.782,0.335 2.413,0.776 0.561,0.388 0.992,0.846 1.362,1.335 0.642,0.858 1.113,1.827 1.527,2.924 0.612,1.643 1.07,3.581 1.391,5.761 0.32,2.178 0.495,4.592 0.495,7.139 C 6.497,14.505 5.98,18.52 5.059,21.632 Z"
             style="fill:none;stroke:#100f0d;stroke-width:1;stroke-linecap:butt;stroke-linejoin:miter;stroke-miterlimit:10;stroke-dasharray:none;stroke-opacity:1"
             id="path96" /></g><g
           id="g98"
           transform="translate(335.3169,654.2861)"><path
             d="m 0,0 c 5.866,0 10.622,4.756 10.622,10.622 0,5.866 -4.756,10.621 -10.622,10.621 -5.866,0 -10.622,-4.755 -10.622,-10.621 C -10.622,4.756 -5.866,0 0,0"
             style="fill:#100f0d;fill-opacity:1;fill-rule:nonzero;stroke:none"
             id="path100" /></g><g
           id="g102"
           transform="translate(335.3169,654.2861)"><path
             d="m 0,0 c 5.866,0 10.622,4.756 10.622,10.622 0,5.866 -4.756,10.621 -10.622,10.621 -5.866,0 -10.622,-4.755 -10.622,-10.621 C -10.622,4.756 -5.866,0 0,0 Z"
             style="fill:none;stroke:#100f0d;stroke-width:1;stroke-linecap:butt;stroke-linejoin:miter;stroke-miterlimit:10;stroke-dasharray:none;stroke-opacity:1"
             id="path104" /></g><g
           id="g106"
           transform="translate(470.7627,270.6982)"><path
             d="m 0,0 c -1.479,-10.899 -4.348,-15.348 -19.981,-16.088 -13.586,-0.642 -20.011,6.686 -22.343,11.862 -2.766,6.141 -7.122,18.914 17.452,19.58 C -7.183,15.836 1.949,14.358 0,0 m -67.178,-4.226 c -2.331,-5.176 -8.753,-12.504 -22.333,-11.862 -15.627,0.74 -18.494,5.189 -19.973,16.088 -1.948,14.358 7.18,15.836 24.861,15.354 24.564,-0.666 20.21,-13.439 17.445,-19.58 m 59.07,-14.861 c 0.236,-0.3 1.145,-2.082 1.498,-5.703 0.355,-3.647 -0.053,-7.561 -1.147,-11.023 -1.859,-5.875 -6.687,-13.609 -19.139,-17.077 -9.962,-2.775 -18.682,-2.327 -25.915,1.333 -5.117,2.59 -7.677,5.916 -8.138,6.557 -0.765,1.062 -1.981,1.6 -3.254,1.437 0,0 -1.834,-0.234 -2.65,-1.815 -0.376,-0.729 -0.74,-2.269 0.317,-3.643 0.431,-0.561 1.328,-1.714 2.761,-3.107 -1.381,-1.013 -3.418,-2.303 -5.98,-3.355 -6.523,-2.68 -13.305,-2.647 -20.156,0.099 -5.478,2.196 -9.271,5.907 -11.272,11.03 -0.732,1.875 -1.09,3.622 -1.265,4.948 0.878,-0.076 1.766,-0.115 2.666,-0.115 h 0.172 c 1.901,0.011 3.433,1.561 3.423,3.461 -0.01,1.895 -1.549,3.424 -3.441,3.424 h -0.019 -0.133 c -15.408,0 -23.958,14.535 -24.182,28.257 -0.182,11.108 3.112,19.613 9.792,25.283 4.493,3.814 9.669,5.544 13.662,6.068 -0.55,-1.204 -0.97,-2.219 -1.273,-2.996 -0.691,-1.771 0.184,-3.767 1.955,-4.458 1.771,-0.691 3.767,0.184 4.458,1.955 1.946,4.987 20.447,48.397 70.138,37.27 11.2,-2.509 18.354,-8.359 21.263,-17.392 1.797,-5.578 1.545,-10.989 1.017,-14.546 -0.681,-4.591 -2.007,-7.321 -2.453,-7.868 -0.246,-0.211 -0.455,-0.451 -0.627,-0.708 -4.468,0.542 -9.235,0.98 -12.906,0.98 -9.006,0 -16.911,-1.577 -21.016,-2.462 -4.104,-0.884 -7.583,-2.637 -14.685,-2.637 l -0.082,-10e-4 -0.083,10e-4 c -7.098,0 -10.576,1.753 -14.678,2.637 -4.103,0.885 -12.005,2.462 -21.008,2.462 -9.002,0 -24.611,-2.638 -26.193,-2.989 -1.009,-0.224 -1.845,-0.131 -1.757,-1.846 0.087,-1.714 0.346,-4.292 0.527,-5.978 0.174,-1.619 1.305,0.495 2.297,-3.268 1.235,-4.683 2.929,-10.192 3.592,-12.552 0.663,-2.359 2.273,-12.13 21.534,-12.13 19.261,0 22.541,6.874 25.402,11.339 5.584,8.715 3.812,14.312 10.367,14.412 6.557,-0.1 4.785,-5.697 10.371,-14.412 2.862,-4.465 6.143,-11.339 25.412,-11.339 4.215,0 7.585,0.468 10.285,1.223 0.143,-0.27 0.323,-0.523 0.543,-0.756 M 7.269,16.22 c -0.545,0.121 -2.757,0.513 -5.79,0.976 0.101,0.221 0.201,0.45 0.299,0.689 0.725,1.751 1.339,3.868 1.776,6.123 1.075,5.54 1.004,11.456 -0.198,16.659 -1.353,5.854 -4.064,10.879 -8.059,14.933 -4.698,4.768 -11.099,8.087 -19.023,9.861 -11.478,2.57 -22.356,2.639 -32.331,0.203 -8.46,-2.065 -16.311,-5.934 -23.335,-11.496 -5.586,-4.424 -10.586,-9.855 -14.86,-16.142 -0.944,-1.389 -1.794,-2.735 -2.556,-4.016 -2.689,0.132 -5.807,-0.239 -8.877,-1.074 -4.769,-1.301 -9.243,-3.646 -12.94,-6.784 -3.825,-3.247 -6.81,-7.298 -8.87,-12.045 -2.337,-5.381 -3.464,-11.639 -3.351,-18.598 0.139,-8.519 3.048,-17.074 7.98,-23.473 2.755,-3.574 6.044,-6.383 9.775,-8.346 1.169,-0.615 2.375,-1.142 3.612,-1.581 0.065,-1.728 0.387,-4.993 1.761,-8.645 1.172,-3.117 2.87,-5.911 5.047,-8.304 2.706,-2.973 6.137,-5.306 10.2,-6.934 4.262,-1.708 8.586,-2.571 12.877,-2.571 0.499,0 0.998,0.012 1.496,0.035 3.834,0.18 7.623,1.05 11.262,2.585 4.1,1.73 7.093,3.93 8.69,5.262 0.695,-0.422 1.438,-0.837 2.227,-1.236 3.913,-1.98 8.236,-3.212 12.849,-3.661 1.32,-0.128 2.664,-0.193 4.032,-0.193 4.449,0 9.138,0.68 13.989,2.032 6.845,1.906 12.463,5.103 16.697,9.503 3.586,3.727 6.119,8.23 7.528,13.384 1.492,5.459 1.354,10.264 0.975,13.334 -0.207,1.67 -0.836,5.462 -2.483,7.958 3.9,2.952 4.569,6.597 4.94,7.918 0.663,2.36 2.358,7.869 3.594,12.552 0.992,3.763 2.124,1.649 2.298,3.268 0.181,1.686 0.44,4.264 0.527,5.978 0.088,1.715 -0.748,1.622 -1.758,1.846"
             style="fill:#100f0d;fill-opacity:1;fill-rule:nonzero;stroke:none"
             id="path108" /></g><g
           id="g110"
           transform="translate(426.7104,258.6787)"><path
             d="m 0,0 c -1.54,-0.374 -2.484,-1.925 -2.111,-3.464 0.993,-4.092 -1.128,-8.98 -5.278,-12.166 -2.341,-1.797 -8.678,-5.491 -16.929,-0.988 -1.39,0.759 -3.133,0.247 -3.892,-1.144 -0.759,-1.39 -0.247,-3.134 1.144,-3.892 2.08,-1.135 4.236,-1.94 6.409,-2.392 1.405,-0.293 2.822,-0.439 4.232,-0.439 0.662,0 1.324,0.032 1.983,0.097 3.802,0.375 7.449,1.83 10.546,4.207 2.827,2.17 5.03,4.969 6.371,8.095 1.424,3.321 1.767,6.771 0.989,9.975 C 3.09,-0.571 1.539,0.373 0,0"
             style="fill:#100f0d;fill-opacity:1;fill-rule:nonzero;stroke:none"
             id="path112" /></g><g
           id="g114"
           transform="translate(649.0166,659.5986)"><path
             d="m 0,0 c -0.35,-1.194 -0.774,-2.086 -1.064,-2.486 -0.044,-0.062 -0.071,-0.091 -0.103,-0.129 -0.091,-0.017 -0.177,-0.047 -0.265,-0.074 1.075,4.617 1.661,9.42 1.661,14.364 0,3.288 -0.253,6.517 -0.737,9.67 0.445,-1.042 0.885,-2.611 1.191,-4.488 C 1.015,14.846 1.21,12.48 1.21,9.957 1.214,5.993 0.718,2.398 0,0 m -21.963,-29.29 c -10.492,-10.488 -24.959,-16.967 -40.965,-16.968 -16.007,0.001 -30.473,6.48 -40.965,16.968 -10.488,10.492 -16.967,24.959 -16.969,40.965 10e-4,10.037 2.551,19.468 7.038,27.694 2.304,-2.291 6.546,-6.19 12.32,-10.117 4.022,-2.733 8.788,-5.47 14.153,-7.665 -5.411,-6.029 -8.386,-13.76 -8.386,-21.891 0,-18.103 14.728,-32.83 32.83,-32.83 18.103,0 32.83,14.727 32.83,32.83 0,8.622 -3.456,16.969 -9.505,23.083 8.7,3.776 15.765,8.727 20.726,12.833 2.533,2.098 4.518,3.97 5.905,5.356 5.05,-8.595 7.955,-18.596 7.956,-29.293 -0.001,-16.006 -6.48,-30.473 -16.968,-40.965 m -102.729,26.675 c -0.125,0.157 -0.348,0.481 -0.563,0.968 -0.476,1.034 -0.957,2.697 -1.284,4.704 -0.332,2.011 -0.527,4.377 -0.527,6.9 -0.004,3.965 0.492,7.56 1.21,9.958 0.16,0.547 0.335,1.021 0.507,1.423 -0.484,-3.151 -0.735,-6.377 -0.736,-9.663 10e-4,-4.944 0.587,-9.748 1.661,-14.364 -0.089,0.027 -0.176,0.057 -0.268,0.074 m 41.644,21.505 c 0.262,0.275 0.442,0.595 0.555,0.932 5.258,-1.68 10.989,-2.76 17.076,-2.76 1.151,0 2.315,0.038 3.491,0.118 6.302,0.428 12.17,1.802 17.521,3.692 0.128,-0.354 0.329,-0.687 0.621,-0.963 5.615,-5.307 8.707,-12.486 8.707,-20.213 0,-15.346 -12.484,-27.83 -27.83,-27.83 -15.345,0 -27.83,12.484 -27.83,27.83 0,7.18 2.731,13.997 7.689,19.194 m -20.845,33.751 c 10.492,10.488 24.958,16.967 40.965,16.968 16.006,-10e-4 30.473,-6.48 40.965,-16.968 2.223,-2.224 4.253,-4.636 6.092,-7.193 -1.973,-2.041 -6.183,-6.098 -12.156,-10.25 -8.432,-5.866 -20.312,-11.866 -34.253,-12.807 -1.055,-0.072 -2.101,-0.106 -3.137,-0.106 -6.57,0 -12.754,1.389 -18.356,3.501 -8.401,3.162 -15.476,7.96 -20.417,11.965 -2.472,2.002 -4.412,3.804 -5.723,5.094 -0.448,0.441 -0.816,0.817 -1.115,1.127 2.097,3.116 4.487,6.02 7.135,8.669 M 5.006,21.404 c -0.465,1.545 -1.011,2.87 -1.798,4.001 -0.399,0.564 -0.866,1.092 -1.5,1.532 -0.625,0.436 -1.473,0.771 -2.388,0.767 -0.387,0 -0.751,-0.089 -1.081,-0.24 -7.012,27.241 -31.738,47.367 -61.167,47.369 -29.43,-0.002 -54.155,-20.128 -61.167,-47.369 -0.33,0.151 -0.694,0.24 -1.081,0.24 -0.915,0.005 -1.763,-0.33 -2.388,-0.767 -0.555,-0.384 -0.982,-0.838 -1.348,-1.321 -0.635,-0.849 -1.102,-1.808 -1.511,-2.893 -0.606,-1.626 -1.059,-3.544 -1.377,-5.701 -0.316,-2.155 -0.489,-4.544 -0.489,-7.065 0.004,-4.394 0.516,-8.367 1.427,-11.446 0.465,-1.545 1.01,-2.87 1.797,-4.001 0.399,-0.564 0.867,-1.092 1.501,-1.532 0.625,-0.436 1.473,-0.771 2.388,-0.767 0.747,0 1.416,0.317 1.892,0.82 7.954,-25.78 31.965,-44.511 60.356,-44.513 28.39,0.002 52.401,18.733 60.356,44.512 0.476,-0.503 1.145,-0.82 1.892,-0.82 0.915,-0.004 1.763,0.331 2.388,0.768 0.555,0.384 0.981,0.838 1.348,1.321 0.635,0.849 1.101,1.808 1.511,2.893 0.605,1.626 1.059,3.544 1.377,5.701 0.315,2.155 0.489,4.543 0.489,7.064 -0.004,4.394 -0.516,8.368 -1.427,11.447"
             style="fill:#211d1d;fill-opacity:1;fill-rule:nonzero;stroke:none"
             id="path116" /></g><g
           id="g118"
           transform="translate(649.0166,659.5986)"><path
             d="m 0,0 c -0.35,-1.194 -0.774,-2.086 -1.064,-2.486 -0.044,-0.062 -0.071,-0.091 -0.103,-0.129 -0.091,-0.017 -0.177,-0.047 -0.265,-0.074 1.075,4.617 1.661,9.42 1.661,14.364 0,3.288 -0.253,6.517 -0.737,9.67 0.445,-1.042 0.885,-2.611 1.191,-4.488 C 1.015,14.846 1.21,12.48 1.21,9.957 1.214,5.993 0.718,2.398 0,0 Z m -21.963,-29.29 c -10.492,-10.488 -24.959,-16.967 -40.965,-16.968 -16.007,0.001 -30.473,6.48 -40.965,16.968 -10.488,10.492 -16.967,24.959 -16.969,40.965 10e-4,10.037 2.551,19.468 7.038,27.694 2.304,-2.291 6.546,-6.19 12.32,-10.117 4.022,-2.733 8.788,-5.47 14.153,-7.665 -5.411,-6.029 -8.386,-13.76 -8.386,-21.891 0,-18.103 14.728,-32.83 32.83,-32.83 18.103,0 32.83,14.727 32.83,32.83 0,8.622 -3.456,16.969 -9.505,23.083 8.7,3.776 15.765,8.727 20.726,12.833 2.533,2.098 4.518,3.97 5.905,5.356 5.05,-8.595 7.955,-18.596 7.956,-29.293 -0.001,-16.006 -6.48,-30.473 -16.968,-40.965 z m -102.729,26.675 c -0.125,0.157 -0.348,0.481 -0.563,0.968 -0.476,1.034 -0.957,2.697 -1.284,4.704 -0.332,2.011 -0.527,4.377 -0.527,6.9 -0.004,3.965 0.492,7.56 1.21,9.958 0.16,0.547 0.335,1.021 0.507,1.423 -0.484,-3.151 -0.735,-6.377 -0.736,-9.663 10e-4,-4.944 0.587,-9.748 1.661,-14.364 -0.089,0.027 -0.176,0.057 -0.268,0.074 z m 41.644,21.505 c 0.262,0.275 0.442,0.595 0.555,0.932 5.258,-1.68 10.989,-2.76 17.076,-2.76 1.151,0 2.315,0.038 3.491,0.118 6.302,0.428 12.17,1.802 17.521,3.692 0.128,-0.354 0.329,-0.687 0.621,-0.963 5.615,-5.307 8.707,-12.486 8.707,-20.213 0,-15.346 -12.484,-27.83 -27.83,-27.83 -15.345,0 -27.83,12.484 -27.83,27.83 0,7.18 2.731,13.997 7.689,19.194 z m -20.845,33.751 c 10.492,10.488 24.958,16.967 40.965,16.968 16.006,-10e-4 30.473,-6.48 40.965,-16.968 2.223,-2.224 4.253,-4.636 6.092,-7.193 -1.973,-2.041 -6.183,-6.098 -12.156,-10.25 -8.432,-5.866 -20.312,-11.866 -34.253,-12.807 -1.055,-0.072 -2.101,-0.106 -3.137,-0.106 -6.57,0 -12.754,1.389 -18.356,3.501 -8.401,3.162 -15.476,7.96 -20.417,11.965 -2.472,2.002 -4.412,3.804 -5.723,5.094 -0.448,0.441 -0.816,0.817 -1.115,1.127 2.097,3.116 4.487,6.02 7.135,8.669 z M 5.006,21.404 c -0.465,1.545 -1.011,2.87 -1.798,4.001 -0.399,0.564 -0.866,1.092 -1.5,1.532 -0.625,0.436 -1.473,0.771 -2.388,0.767 -0.387,0 -0.751,-0.089 -1.081,-0.24 -7.012,27.241 -31.738,47.367 -61.167,47.369 -29.43,-0.002 -54.155,-20.128 -61.167,-47.369 -0.33,0.151 -0.694,0.24 -1.081,0.24 -0.915,0.005 -1.763,-0.33 -2.388,-0.767 -0.555,-0.384 -0.982,-0.838 -1.348,-1.321 -0.635,-0.849 -1.102,-1.808 -1.511,-2.893 -0.606,-1.626 -1.059,-3.544 -1.377,-5.701 -0.316,-2.155 -0.489,-4.544 -0.489,-7.065 0.004,-4.394 0.516,-8.367 1.427,-11.446 0.465,-1.545 1.01,-2.87 1.797,-4.001 0.399,-0.564 0.867,-1.092 1.501,-1.532 0.625,-0.436 1.473,-0.771 2.388,-0.767 0.747,0 1.416,0.317 1.892,0.82 7.954,-25.78 31.965,-44.511 60.356,-44.513 28.39,0.002 52.401,18.733 60.356,44.512 0.476,-0.503 1.145,-0.82 1.892,-0.82 0.915,-0.004 1.763,0.331 2.388,0.768 0.555,0.384 0.981,0.838 1.348,1.321 0.635,0.849 1.101,1.808 1.511,2.893 0.605,1.626 1.059,3.544 1.377,5.701 0.315,2.155 0.489,4.543 0.489,7.064 -0.004,4.394 -0.516,8.368 -1.427,11.447 z"
             style="fill:none;stroke:#211d1d;stroke-width:1;stroke-linecap:butt;stroke-linejoin:miter;stroke-miterlimit:10;stroke-dasharray:none;stroke-opacity:1"
             id="path120" /></g><g
           id="g122"
           transform="translate(586.0884,645.6831)"><path
             d="m 0,0 c 5.805,0 10.51,4.707 10.51,10.511 0,5.805 -4.705,10.51 -10.51,10.51 -5.804,0 -10.51,-4.705 -10.51,-10.51 C -10.51,4.707 -5.804,0 0,0"
             style="fill:#211d1d;fill-opacity:1;fill-rule:nonzero;stroke:none"
             id="path124" /></g><g
           id="g126"
           transform="translate(586.0884,645.6831)"><path
             d="m 0,0 c 5.805,0 10.51,4.707 10.51,10.511 0,5.805 -4.705,10.51 -10.51,10.51 -5.804,0 -10.51,-4.705 -10.51,-10.51 C -10.51,4.707 -5.804,0 0,0 Z"
             style="fill:none;stroke:#211d1d;stroke-width:1;stroke-linecap:butt;stroke-linejoin:miter;stroke-miterlimit:10;stroke-dasharray:none;stroke-opacity:1"
             id="path128" /></g><g
           id="g130"
           transform="translate(792.9629,657.1851)"><path
             d="M 0,0 C 0,0 27.111,42.963 28.741,45.556 26.222,48.148 23.468,54.82 24,60.074 c 0.862,8.513 8,14.963 17.037,14.963 9.593,0 17.111,-6.37 17.259,-14.963 0.095,-5.483 -3.514,-12.834 -5.925,-16.888 1.692,-2.575 28.444,-43.26 28.444,-43.26 l 36.778,37.111 c 0,0 -3.425,10.241 2.055,17.389 3.833,5 12.972,7.132 18.611,5.167 5.741,-2 13.503,-9.464 9.445,-20.889 -4.107,-11.561 -17.333,-12.111 -17.333,-12.111 0,0 -32.223,-57.63 -40.667,-72.741 -38.815,8.889 -71.408,9.334 -101.037,0.148 -12.148,21.481 -40.186,73.315 -40.186,73.315 0,0 -13.277,1.889 -17.61,11.389 -4.102,8.991 1.796,19.037 7.722,22 5.926,2.963 16.454,4.123 23.222,-4.223 5.722,-7.055 1,-21.37 1,-21.37 z"
             style="fill:none;stroke:#100f0d;stroke-width:7;stroke-linecap:round;stroke-linejoin:round;stroke-miterlimit:10;stroke-dasharray:none;stroke-opacity:1"
             id="path132" /></g><g
           id="g134"
           transform="translate(671.7393,340.3965)"><path
             d="m 0,0 c -0.042,0 -0.085,-0.001 -0.128,-0.003 -1.475,-0.062 -2.685,-1.188 -2.854,-2.654 -0.303,-2.639 -2.876,-4.603 -4.515,-4.795 -1.457,-0.171 -2.576,-1.371 -2.646,-2.836 -0.07,-1.466 0.93,-2.767 2.364,-3.076 2.85,-0.615 4.508,-2.286 4.797,-4.835 0.169,-1.496 1.42,-2.635 2.925,-2.663 h 0.056 c 1.481,0 2.745,1.083 2.966,2.552 0.389,2.584 2.059,4.322 5.106,5.311 1.37,0.445 2.231,1.803 2.049,3.232 -0.182,1.429 -1.355,2.528 -2.793,2.616 -2.046,0.125 -3.85,2.076 -4.388,4.744 C 2.656,-1.003 1.421,0 0,0 m -0.001,-3 c 0.802,-3.98 3.669,-6.933 7.145,-7.146 -4.097,-1.331 -6.581,-3.97 -7.145,-7.716 -0.416,3.67 -2.851,6.505 -7.145,7.43 3.081,0.363 6.686,3.44 7.145,7.432"
             style="fill:#211d1d;fill-opacity:1;fill-rule:nonzero;stroke:none"
             id="path136" /></g><g
           id="g138"
           transform="translate(750.7422,329.4268)"><path
             d="m 0,0 c -0.042,0 -0.085,-0.001 -0.128,-0.003 -1.475,-0.062 -2.685,-1.188 -2.853,-2.654 -0.304,-2.639 -2.877,-4.602 -4.516,-4.795 -1.457,-0.171 -2.576,-1.371 -2.646,-2.836 -0.07,-1.466 0.93,-2.767 2.364,-3.075 2.85,-0.616 4.508,-2.287 4.797,-4.836 0.169,-1.496 1.42,-2.635 2.925,-2.662 0.019,-10e-4 0.038,-10e-4 0.057,-10e-4 1.48,0 2.744,1.083 2.965,2.552 0.389,2.584 2.06,4.322 5.106,5.312 1.37,0.445 2.231,1.802 2.049,3.231 -0.182,1.43 -1.354,2.528 -2.793,2.616 -2.046,0.126 -3.85,2.076 -4.388,4.744 C 2.656,-1.003 1.422,0 0,0 m -0.001,-3 c 0.802,-3.98 3.669,-6.933 7.145,-7.146 -4.097,-1.331 -6.581,-3.97 -7.145,-7.716 -0.416,3.67 -2.851,6.505 -7.145,7.43 3.081,0.363 6.686,3.44 7.145,7.432"
             style="fill:#211d1d;fill-opacity:1;fill-rule:nonzero;stroke:none"
             id="path140" /></g><g
           id="g142"
           transform="translate(643.5078,292.624)"><path
             d="m 0,0 45.64,6.498 c 1.082,0.154 2.017,0.835 2.496,1.818 L 68.35,49.813 c 1.157,2.376 4.543,2.381 5.708,0.008 L 94.348,8.477 C 94.825,7.505 95.749,6.829 96.819,6.67 l 45.57,-6.793 c 2.645,-0.395 3.65,-3.681 1.676,-5.485 l -33.094,-30.286 c -0.83,-0.758 -1.215,-1.888 -1.021,-2.996 l 8.235,-47.095 c 0.454,-2.596 -2.268,-4.584 -4.603,-3.362 L 72.899,-68.05 c -0.955,0.5 -2.093,0.501 -3.048,0.004 l -40.67,-21.178 c -2.322,-1.209 -5.028,0.751 -4.602,3.334 l 7.618,46.244 c 0.177,1.077 -0.191,2.172 -0.983,2.923 L -1.739,-5.449 C -3.667,-3.62 -2.63,-0.374 0,0 Z"
             style="fill:none;stroke:#211d1d;stroke-width:7;stroke-linecap:butt;stroke-linejoin:miter;stroke-miterlimit:10;stroke-dasharray:none;stroke-opacity:1"
             id="path144" /></g><g
           id="g146"
           transform="translate(787.104,295.7227)"><path
             d="m 0,0 c -25.889,-2.445 -51,-9.278 -59.389,-11.667 -2.013,-0.573 -3.056,-0.667 -2.334,-2.723 0.016,-0.045 0.035,-0.085 0.051,-0.13 -2.854,0.262 -6.913,0.427 -11.432,0.427 -3.677,0 -7.051,-0.109 -9.721,-0.291 0.718,2.05 -0.323,2.144 -2.335,2.717 -8.388,2.389 -33.5,9.222 -59.388,11.667 -4.24,0.4 -2.993,-2.571 -2.445,-4.39 7.111,-23.61 26.934,-29.543 35.055,-30.388 12.73,-1.326 22.724,4.386 28.333,18.366 2.776,-0.215 6.453,-0.348 10.501,-0.348 4.883,0 9.24,0.192 12.106,0.49 5.598,-14.081 15.614,-19.838 28.387,-18.508 C -24.489,-33.933 -4.667,-28 2.444,-4.39 2.992,-2.571 4.24,0.4 0,0"
             style="fill:#ffffff;fill-opacity:1;fill-rule:nonzero;stroke:none"
             id="path148" /></g><g
           id="g150"
           transform="translate(789.5483,291.333)"><path
             d="m 0,0 c -7.111,-23.61 -26.934,-29.543 -35.056,-30.389 -13.333,-1.388 -23.676,4.921 -29.111,20.389 -0.722,2.056 0.32,2.149 2.334,2.723 8.389,2.388 33.5,9.221 59.389,11.667 C 1.795,4.79 0.547,1.818 0,0 m -114.382,-30.389 c -8.121,0.846 -27.944,6.779 -35.055,30.389 -0.548,1.818 -1.795,4.79 2.444,4.39 25.889,-2.446 51,-9.279 59.389,-11.667 2.013,-0.574 3.056,-0.667 2.333,-2.723 -5.434,-15.468 -15.777,-21.777 -29.111,-20.389 M 5.049,11.503 C -25.75,7.025 -60.63,-1.481 -63.444,-2.296 c -1.599,-0.463 -4.045,-1.063 -5.355,-2.965 -1.972,1.237 -4.176,1.88 -6.436,1.782 -1.94,-0.074 -3.79,-0.679 -5.437,-1.724 -1.319,1.859 -3.737,2.449 -5.321,2.907 -2.815,0.815 -37.694,9.321 -68.494,13.799 -11.061,1.608 -0.162,-16.415 3.013,-21.873 10.814,-18.593 28.222,-24.593 39.629,-25.333 5.84,-0.38 23.852,1.63 31.345,23.323 0.053,0.154 0.083,0.289 0.13,0.439 3.862,3.933 5.737,4.974 11.248,0.181 0.063,-0.208 0.11,-0.401 0.185,-0.62 7.493,-21.693 25.504,-23.703 31.344,-23.323 11.408,0.74 28.815,6.74 39.63,25.333 3.174,5.458 14.074,23.481 3.012,21.873"
             style="fill:#211d1d;fill-opacity:1;fill-rule:nonzero;stroke:none"
             id="path152" /></g><g
           id="g154"
           transform="translate(1522.1836,654.1484)"><path
             d="m 0,0 c -8.766,17.601 -16.272,48.538 -18.35,57.528 5.889,2.307 21.272,8.704 36.443,18.125 6.246,3.879 13.409,5.81 20.568,5.798 l 0.054,-121.483 c -0.041,-0.028 -0.08,-0.055 -0.121,-0.084 C 16.037,-24.445 7.954,-15.974 0,0 M 100.117,61.765 C 99.925,61.839 80.65,69.33 62.261,80.75 c -14.377,8.927 -32.957,8.928 -47.334,0 -18.34,-11.389 -37.611,-18.456 -37.803,-18.526 -1.41,-0.513 -2.225,-1.99 -1.906,-3.457 0.354,-1.628 8.793,-40.121 19.411,-61.442 8.7,-17.471 17.39,-26.427 42.263,-43.56 0.512,-0.353 1.107,-0.529 1.702,-0.529 0.594,0 1.189,0.176 1.702,0.529 24.871,17.131 33.56,26.088 42.263,43.56 10.615,21.318 19.054,59.387 19.408,60.997 0.318,1.447 -0.467,2.909 -1.85,3.443"
             style="fill:#100f0d;fill-opacity:1;fill-rule:nonzero;stroke:none"
             id="path156" /></g><g
           id="g158"
           transform="translate(1800.1475,631.5283)"><path
             d="m 0,0 c -0.628,0 -1.245,0.294 -1.635,0.845 -0.637,0.902 -0.424,2.15 0.478,2.788 15.649,11.067 23.702,30.423 20.514,49.312 -0.749,4.434 -2.078,8.731 -3.95,12.772 -0.465,1.002 -0.028,2.191 0.974,2.655 1.006,0.465 2.192,0.028 2.655,-0.974 2.023,-4.363 3.457,-9.002 4.265,-13.787 C 26.743,33.215 18.05,12.316 1.153,0.367 0.802,0.119 0.399,0 0,0"
             style="fill:#110f0d;fill-opacity:1;fill-rule:nonzero;stroke:none"
             id="path160" /></g><g
           id="g162"
           transform="translate(1795.1885,706.9219)"><path
             d="m 0,0 h -17.056 v 5.872 c 0,1.553 -1.258,2.812 -2.811,2.812 h -7.953 c -1.554,0 -2.813,-1.259 -2.813,-2.812 V 0 h -4.869 c -12.66,0 -20.366,-6.421 -20.366,-16.696 0,-6.696 3.853,-12.2 11.834,-14.218 -8.073,-0.46 -13.945,-7.982 -13.945,-15.137 0,-10.091 7.798,-16.146 19.816,-16.146 h 7.53 v -5.872 c 0,-1.553 1.259,-2.812 2.813,-2.812 h 7.953 c 1.553,0 2.811,1.259 2.811,2.812 v 5.872 H 0.183 c 0.917,0 1.008,0.093 1.008,1.284 v 6.086 6.116 4.648 c 0,1.553 -1.258,2.813 -2.811,2.813 h -7.954 c -1.553,0 -2.812,-1.26 -2.812,-2.813 v -4.648 h -16.328 c -4.311,0 -5.871,2.018 -5.871,5.137 0,3.119 1.835,5.045 5.871,5.045 h 8.745 c 1.554,0 2.813,1.259 2.813,2.812 v 9.421 c 0,1.553 -1.259,2.812 -2.813,2.812 h -7.277 c -4.128,0 -5.779,2.018 -5.779,4.862 0,2.935 1.651,5.045 5.779,5.045 h 14.86 v -4.65 c 0,-1.552 1.259,-2.811 2.812,-2.811 h 7.954 c 1.553,0 2.811,1.259 2.811,2.811 v 4.65 6.116 6.544 C 1.191,-0.183 0.917,0 0,0"
             style="fill:#110f0d;fill-opacity:1;fill-rule:nonzero;stroke:none"
             id="path164" /></g><g
           id="g166"
           transform="translate(1770.7705,609.6714)"><path
             d="m 0,0 c -19.199,0 -37.461,8.298 -50.103,22.767 -1.09,1.248 -0.962,3.143 0.286,4.233 1.248,1.09 3.143,0.962 4.232,-0.285 C -34.082,13.55 -17.467,6 0,6 c 21.961,0 42.24,11.937 52.924,31.151 0.805,1.448 2.631,1.971 4.08,1.164 1.448,-0.805 1.969,-2.631 1.164,-4.08 C 46.427,13.118 24.138,0 0,0"
             style="fill:#110f0d;fill-opacity:1;fill-rule:nonzero;stroke:none"
             id="path168" /></g><g
           id="g170"
           transform="translate(1833.499,683.1509)"><path
             d="m 0,0 c -1.451,0 -2.727,1.055 -2.96,2.533 -4.658,29.557 -29.795,51.009 -59.769,51.009 -1.657,0 -3,1.344 -3,3 0,1.657 1.343,3 3,3 15.94,0 31.358,-5.725 43.414,-16.121 C -7.386,33.134 0.527,18.945 2.968,3.468 3.226,1.831 2.107,0.295 0.471,0.037 0.312,0.012 0.155,0 0,0"
             style="fill:#110f0d;fill-opacity:1;fill-rule:nonzero;stroke:none"
             id="path172" /></g><g
           id="g174"
           transform="translate(1709.499,656.3975)"><path
             d="M 0,0 C -1.318,0 -2.527,0.876 -2.892,2.21 -4.45,7.909 -5.24,13.822 -5.24,19.785 c 0,25.411 14.805,48.951 37.718,59.971 1.495,0.718 3.286,0.09 4.003,-1.403 C 37.2,76.86 36.571,75.067 35.079,74.349 14.23,64.322 0.76,42.904 0.76,19.785 0.76,14.356 1.479,8.976 2.896,3.792 3.333,2.194 2.392,0.544 0.793,0.107 0.528,0.035 0.262,0 0,0"
             style="fill:#110f0d;fill-opacity:1;fill-rule:nonzero;stroke:none"
             id="path176" /></g><g
           id="g178"
           transform="translate(1720.8926,691.4854)"><path
             d="m 0,0 c -0.222,0 -0.446,0.037 -0.667,0.115 -1.042,0.369 -1.587,1.511 -1.219,2.553 6.564,18.54 22.676,32.088 42.05,35.358 15.404,2.6 31.19,-1.585 43.297,-11.486 0.855,-0.699 0.981,-1.959 0.282,-2.814 C 83.046,22.871 81.783,22.745 80.93,23.443 69.715,32.613 55.097,36.492 40.83,34.082 22.887,31.053 7.965,18.505 1.886,1.333 1.595,0.513 0.823,0 0,0"
             style="fill:#110f0d;fill-opacity:1;fill-rule:nonzero;stroke:none"
             id="path180" /></g><g
           id="g182"
           transform="translate(1769.877,621.9722)"><path
             d="m 0,0 c -22.941,0 -43.607,14.462 -51.126,36.881 -0.351,1.047 0.213,2.181 1.261,2.532 1.048,0.35 2.18,-0.213 2.532,-1.261 C -39.449,14.646 -15.949,0.587 8.534,4.719 9.62,4.906 10.656,4.169 10.839,3.08 11.023,1.99 10.289,0.958 9.2,0.774 6.111,0.253 3.034,0 0,0"
             style="fill:#110f0d;fill-opacity:1;fill-rule:nonzero;stroke:none"
             id="path184" /></g><path
           d="m 1439.605,276.912 h -64.544 v 23.887 h 64.544 z m 0,-62.856 h -64.544 v 23.887 h 64.544 z m -73.02,0 h -64.543 v 23.887 h 64.543 z m -100.652,54.914 h 64.543 v -23.888 h -64.543 z m 0,62.856 h 64.543 v -23.888 h -64.543 z m 72.753,0 h 64.543 v -23.888 h -64.543 z m 0,-62.856 h 64.543 v -23.888 h -64.543 z m 27.899,7.942 h -64.543 v 23.887 h 64.543 z m 78.02,-2.5 v 28.887 c 0,1.381 -1.119,2.5 -2.5,2.5 h -33.876 v 28.527 c 0,1.381 -1.12,2.5 -2.5,2.5 h -69.543 c -0.615,0 -1.17,-0.23 -1.605,-0.597 -0.435,0.367 -0.991,0.597 -1.605,0.597 h -69.543 c -1.381,0 -2.5,-1.119 -2.5,-2.5 v -28.888 c 0,-1.38 1.119,-2.5 2.5,-2.5 h 33.609 v -28.526 c 0,-0.151 0.019,-0.298 0.045,-0.442 h -33.654 c -1.381,0 -2.5,-1.119 -2.5,-2.5 v -28.888 c 0,-1.381 1.119,-2.5 2.5,-2.5 h 33.609 v -28.526 c 0,-1.381 1.119,-2.5 2.5,-2.5 h 69.543 c 0.677,0 1.288,0.271 1.738,0.708 0.45,-0.437 1.062,-0.708 1.739,-0.708 h 69.543 c 1.381,0 2.5,1.119 2.5,2.5 v 28.886 c 0,1.381 -1.119,2.5 -2.5,2.5 h -33.876 v 28.528 c 0,0.151 -0.019,0.298 -0.045,0.442 h 33.921 c 1.381,0 2.5,1.119 2.5,2.5"
           style="fill:#100f0d;fill-opacity:1;fill-rule:nonzero;stroke:none"
           id="path186" /></g></g></g></svg>
